<svg width="1312" height="320" viewBox="0 0 1312 320" fill="none" xmlns="http://www.w3.org/2000/svg">
<g clip-path="url(#clip0_2361_159)">
<path d="M915.979 70.6693C903.081 57.0585 888.342 42.6668 867.688 37.2318C825.913 26.2381 784.661 47.7389 775.549 85.255C779.565 134.729 817.055 125.778 849.56 150.179C882.065 174.58 890.012 269.591 930.679 233.42C955.866 211.017 959.483 154.132 938.758 106.362C932.432 91.78 924.568 79.7329 915.979 70.6693Z" fill="#FFA0BE"/>
<path d="M1027.06 165.979C1068.48 134.178 1234.62 71.9372 1286.51 75.1174C1338.41 78.2975 1303.36 177.792 1250.1 225.494C1196.84 273.197 1027.06 303.181 994.284 280.011C961.51 256.842 985.635 197.781 1027.06 165.979Z" fill="#FFD952"/>
<path d="M96.5326 183.172C135.987 172.416 249.154 98.5712 268.886 64.8756C288.618 31.18 205.131 6.16483 149.7 16.7915C94.2688 27.4182 1.82821 118.683 3.97269 149.911C6.11717 181.139 57.0781 193.928 96.5326 183.172Z" fill="#FFD952"/>
</g>
<defs>
<clipPath id="clip0_2361_159">
<rect width="1312" height="320" fill="white"/>
</clipPath>
</defs>
</svg>
