<svg width="128" height="14" viewBox="0 0 128 14" fill="none" xmlns="http://www.w3.org/2000/svg">
<path d="M11 13C11 6.99986 11 6.99982 1 6.99982C11 6.99982 11 7 11 1C11 6.91771 11 7.00338 19.8164 7.00026C20.1945 6.99983 20.5888 6.99983 21 6.99982C20.5888 6.99983 20.1945 7.00012 19.8164 7.00026C11 7.01014 11 7.24668 11 13Z" fill="#292929"/>
<path d="M19.8164 7.00026C20.1945 6.99983 20.5888 6.99983 21 6.99982C20.5888 6.99983 20.1945 7.00012 19.8164 7.00026Z" fill="#292929"/>
<path d="M11 13C11 6.99986 11 6.99982 1 6.99982C11 6.99982 11 7 11 1C11 6.91771 11 7.00338 19.8164 7.00026C20.1945 6.99983 20.5888 6.99983 21 6.99982C20.5888 6.99983 20.1945 7.00012 19.8164 7.00026C11 7.01014 11 7.24668 11 13Z" stroke="#292929" stroke-width="2" stroke-linecap="round" stroke-linejoin="round"/>
<path d="M19.8164 7.00026C20.1945 6.99983 20.5888 6.99983 21 6.99982C20.5888 6.99983 20.1945 7.00012 19.8164 7.00026Z" stroke="#292929" stroke-width="2" stroke-linecap="round" stroke-linejoin="round"/>
<path d="M27 7H127" stroke="#292929" stroke-width="2" stroke-linecap="round" stroke-dasharray="4 8"/>
</svg>
