<svg width="209" height="110" viewBox="0 0 209 110" fill="none" xmlns="http://www.w3.org/2000/svg">
<path d="M2.248 7.576V19H3.768V13.768H9.016V12.488H3.768V8.856H9.752V7.576H2.248ZM11.1635 10.728V19H12.5235V15.32C12.5235 14.7867 12.5768 14.3173 12.6835 13.912C12.7902 13.496 12.9608 13.144 13.1955 12.856C13.4302 12.568 13.7395 12.3493 14.1235 12.2C14.5075 12.0507 14.9715 11.976 15.5155 11.976V10.536C14.7795 10.5147 14.1715 10.664 13.6915 10.984C13.2115 11.304 12.8062 11.8 12.4755 12.472H12.4435V10.728H11.1635ZM17.2504 14.872C17.2504 14.3707 17.3144 13.928 17.4424 13.544C17.581 13.1493 17.7677 12.8187 18.0024 12.552C18.237 12.2853 18.509 12.0827 18.8184 11.944C19.1384 11.8053 19.4744 11.736 19.8264 11.736C20.1784 11.736 20.509 11.8053 20.8184 11.944C21.1384 12.0827 21.4157 12.2853 21.6504 12.552C21.885 12.8187 22.0664 13.1493 22.1944 13.544C22.333 13.928 22.4024 14.3707 22.4024 14.872C22.4024 15.3733 22.333 15.8213 22.1944 16.216C22.0664 16.6 21.885 16.9253 21.6504 17.192C21.4157 17.448 21.1384 17.6453 20.8184 17.784C20.509 17.9227 20.1784 17.992 19.8264 17.992C19.4744 17.992 19.1384 17.9227 18.8184 17.784C18.509 17.6453 18.237 17.448 18.0024 17.192C17.7677 16.9253 17.581 16.6 17.4424 16.216C17.3144 15.8213 17.2504 15.3733 17.2504 14.872ZM15.8104 14.872C15.8104 15.48 15.8957 16.0453 16.0664 16.568C16.237 17.0907 16.493 17.5493 16.8344 17.944C17.1757 18.328 17.597 18.632 18.0984 18.856C18.5997 19.0693 19.1757 19.176 19.8264 19.176C20.4877 19.176 21.0637 19.0693 21.5544 18.856C22.0557 18.632 22.477 18.328 22.8184 17.944C23.1597 17.5493 23.4157 17.0907 23.5864 16.568C23.757 16.0453 23.8424 15.48 23.8424 14.872C23.8424 14.264 23.757 13.6987 23.5864 13.176C23.4157 12.6427 23.1597 12.184 22.8184 11.8C22.477 11.4053 22.0557 11.096 21.5544 10.872C21.0637 10.648 20.4877 10.536 19.8264 10.536C19.1757 10.536 18.5997 10.648 18.0984 10.872C17.597 11.096 17.1757 11.4053 16.8344 11.8C16.493 12.184 16.237 12.6427 16.0664 13.176C15.8957 13.6987 15.8104 14.264 15.8104 14.872ZM25.4459 10.728V19H26.8059V14.328C26.8059 13.9547 26.8539 13.6133 26.9499 13.304C27.0565 12.984 27.2112 12.7067 27.4139 12.472C27.6165 12.2373 27.8672 12.056 28.1659 11.928C28.4752 11.8 28.8379 11.736 29.2539 11.736C29.7765 11.736 30.1872 11.8853 30.4859 12.184C30.7845 12.4827 30.9339 12.888 30.9339 13.4V19H32.2939V13.56C32.2939 13.112 32.2459 12.7067 32.1499 12.344C32.0645 11.9707 31.9099 11.6507 31.6859 11.384C31.4619 11.1173 31.1685 10.9093 30.8059 10.76C30.4432 10.6107 29.9899 10.536 29.4459 10.536C28.2192 10.536 27.3232 11.0373 26.7579 12.04H26.7259V10.728H25.4459ZM36.2245 10.728V8.248H34.8645V10.728H33.4565V11.928H34.8645V17.192C34.8645 17.576 34.9018 17.8853 34.9765 18.12C35.0512 18.3547 35.1632 18.536 35.3125 18.664C35.4725 18.792 35.6752 18.8827 35.9205 18.936C36.1765 18.9787 36.4805 19 36.8325 19H37.8725V17.8H37.2485C37.0352 17.8 36.8592 17.7947 36.7205 17.784C36.5925 17.7627 36.4912 17.7253 36.4165 17.672C36.3418 17.6187 36.2885 17.544 36.2565 17.448C36.2352 17.352 36.2245 17.224 36.2245 17.064V11.928H37.8725V10.728H36.2245ZM49.5805 14.072H44.8285C44.8498 13.752 44.9192 13.4533 45.0365 13.176C45.1538 12.888 45.3138 12.6373 45.5165 12.424C45.7192 12.2107 45.9592 12.0453 46.2365 11.928C46.5245 11.8 46.8445 11.736 47.1965 11.736C47.5378 11.736 47.8472 11.8 48.1245 11.928C48.4125 12.0453 48.6578 12.2107 48.8605 12.424C49.0738 12.6267 49.2392 12.872 49.3565 13.16C49.4845 13.448 49.5592 13.752 49.5805 14.072ZM50.8925 16.376H49.5485C49.4312 16.92 49.1858 17.3253 48.8125 17.592C48.4498 17.8587 47.9805 17.992 47.4045 17.992C46.9565 17.992 46.5672 17.9173 46.2365 17.768C45.9058 17.6187 45.6338 17.4213 45.4205 17.176C45.2072 16.92 45.0525 16.632 44.9565 16.312C44.8605 15.9813 44.8178 15.6347 44.8285 15.272H51.0205C51.0418 14.7707 50.9938 14.2427 50.8765 13.688C50.7698 13.1333 50.5672 12.6213 50.2685 12.152C49.9805 11.6827 49.5912 11.2987 49.1005 11C48.6205 10.6907 48.0125 10.536 47.2765 10.536C46.7112 10.536 46.1885 10.6427 45.7085 10.856C45.2392 11.0693 44.8285 11.368 44.4765 11.752C44.1352 12.136 43.8685 12.5893 43.6765 13.112C43.4845 13.6347 43.3885 14.2107 43.3885 14.84C43.4098 15.4693 43.5005 16.0507 43.6605 16.584C43.8312 17.1173 44.0818 17.576 44.4125 17.96C44.7432 18.344 45.1485 18.6427 45.6285 18.856C46.1192 19.0693 46.6952 19.176 47.3565 19.176C48.2952 19.176 49.0738 18.9413 49.6925 18.472C50.3112 18.0027 50.7112 17.304 50.8925 16.376ZM52.4303 10.728V19H53.7903V14.328C53.7903 13.9547 53.8383 13.6133 53.9343 13.304C54.0409 12.984 54.1956 12.7067 54.3983 12.472C54.6009 12.2373 54.8516 12.056 55.1503 11.928C55.4596 11.8 55.8223 11.736 56.2383 11.736C56.7609 11.736 57.1716 11.8853 57.4703 12.184C57.7689 12.4827 57.9183 12.888 57.9183 13.4V19H59.2783V13.56C59.2783 13.112 59.2303 12.7067 59.1343 12.344C59.0489 11.9707 58.8943 11.6507 58.6703 11.384C58.4463 11.1173 58.1529 10.9093 57.7903 10.76C57.4276 10.6107 56.9743 10.536 56.4303 10.536C55.2036 10.536 54.3076 11.0373 53.7423 12.04H53.7103V10.728H52.4303ZM62.3129 14.936C62.3129 14.5307 62.3555 14.136 62.4409 13.752C62.5262 13.368 62.6649 13.0267 62.8569 12.728C63.0489 12.4293 63.3049 12.1893 63.6249 12.008C63.9449 11.8267 64.3342 11.736 64.7929 11.736C65.2622 11.736 65.6622 11.8267 65.9929 12.008C66.3235 12.1787 66.5902 12.408 66.7929 12.696C67.0062 12.984 67.1609 13.32 67.2569 13.704C67.3529 14.0773 67.4009 14.4667 67.4009 14.872C67.4009 15.256 67.3529 15.6347 67.2569 16.008C67.1715 16.3813 67.0275 16.7173 66.8249 17.016C66.6222 17.304 66.3609 17.5387 66.0409 17.72C65.7209 17.9013 65.3315 17.992 64.8729 17.992C64.4355 17.992 64.0515 17.9067 63.7209 17.736C63.4009 17.5653 63.1342 17.336 62.9209 17.048C62.7182 16.76 62.5635 16.4347 62.4569 16.072C62.3609 15.6987 62.3129 15.32 62.3129 14.936ZM68.7129 19V7.576H67.3529V11.832H67.3209C67.1715 11.5867 66.9849 11.384 66.7609 11.224C66.5475 11.0533 66.3182 10.92 66.0729 10.824C65.8275 10.7173 65.5822 10.6427 65.3369 10.6C65.0915 10.5573 64.8622 10.536 64.6489 10.536C64.0195 10.536 63.4649 10.6533 62.9849 10.888C62.5155 11.112 62.1209 11.4213 61.8009 11.816C61.4915 12.2 61.2569 12.6533 61.0969 13.176C60.9475 13.6987 60.8729 14.2533 60.8729 14.84C60.8729 15.4267 60.9529 15.9813 61.1129 16.504C61.2729 17.0267 61.5075 17.4853 61.8169 17.88C62.1369 18.2747 62.5315 18.5893 63.0009 18.824C63.4809 19.0587 64.0409 19.176 64.6809 19.176C65.2569 19.176 65.7849 19.0747 66.2649 18.872C66.7449 18.6693 67.0969 18.3387 67.3209 17.88H67.3529V19H68.7129ZM76.2504 14.936C76.2504 14.5307 76.293 14.136 76.3784 13.752C76.4637 13.368 76.6024 13.0267 76.7944 12.728C76.9864 12.4293 77.2424 12.1893 77.5624 12.008C77.8824 11.8267 78.2717 11.736 78.7304 11.736C79.1997 11.736 79.5997 11.8267 79.9304 12.008C80.261 12.1787 80.5277 12.408 80.7304 12.696C80.9437 12.984 81.0984 13.32 81.1944 13.704C81.2904 14.0773 81.3384 14.4667 81.3384 14.872C81.3384 15.256 81.2904 15.6347 81.1944 16.008C81.109 16.3813 80.965 16.7173 80.7624 17.016C80.5597 17.304 80.2984 17.5387 79.9784 17.72C79.6584 17.9013 79.269 17.992 78.8104 17.992C78.373 17.992 77.989 17.9067 77.6584 17.736C77.3384 17.5653 77.0717 17.336 76.8584 17.048C76.6557 16.76 76.501 16.4347 76.3944 16.072C76.2984 15.6987 76.2504 15.32 76.2504 14.936ZM82.6504 19V7.576H81.2904V11.832H81.2584C81.109 11.5867 80.9224 11.384 80.6984 11.224C80.485 11.0533 80.2557 10.92 80.0104 10.824C79.765 10.7173 79.5197 10.6427 79.2744 10.6C79.029 10.5573 78.7997 10.536 78.5864 10.536C77.957 10.536 77.4024 10.6533 76.9224 10.888C76.453 11.112 76.0584 11.4213 75.7384 11.816C75.429 12.2 75.1944 12.6533 75.0344 13.176C74.885 13.6987 74.8104 14.2533 74.8104 14.84C74.8104 15.4267 74.8904 15.9813 75.0504 16.504C75.2104 17.0267 75.445 17.4853 75.7544 17.88C76.0744 18.2747 76.469 18.5893 76.9384 18.824C77.4184 19.0587 77.9784 19.176 78.6184 19.176C79.1944 19.176 79.7224 19.0747 80.2024 18.872C80.6824 18.6693 81.0344 18.3387 81.2584 17.88H81.2904V19H82.6504ZM90.4868 14.072H85.7348C85.7561 13.752 85.8254 13.4533 85.9428 13.176C86.0601 12.888 86.2201 12.6373 86.4228 12.424C86.6254 12.2107 86.8654 12.0453 87.1428 11.928C87.4308 11.8 87.7508 11.736 88.1028 11.736C88.4441 11.736 88.7534 11.8 89.0308 11.928C89.3188 12.0453 89.5641 12.2107 89.7668 12.424C89.9801 12.6267 90.1454 12.872 90.2628 13.16C90.3908 13.448 90.4654 13.752 90.4868 14.072ZM91.7987 16.376H90.4548C90.3374 16.92 90.0921 17.3253 89.7188 17.592C89.3561 17.8587 88.8868 17.992 88.3108 17.992C87.8628 17.992 87.4734 17.9173 87.1428 17.768C86.8121 17.6187 86.5401 17.4213 86.3268 17.176C86.1134 16.92 85.9588 16.632 85.8628 16.312C85.7668 15.9813 85.7241 15.6347 85.7348 15.272H91.9268C91.9481 14.7707 91.9001 14.2427 91.7828 13.688C91.6761 13.1333 91.4734 12.6213 91.1748 12.152C90.8868 11.6827 90.4974 11.2987 90.0068 11C89.5268 10.6907 88.9188 10.536 88.1828 10.536C87.6174 10.536 87.0948 10.6427 86.6148 10.856C86.1454 11.0693 85.7348 11.368 85.3828 11.752C85.0414 12.136 84.7748 12.5893 84.5828 13.112C84.3908 13.6347 84.2948 14.2107 84.2948 14.84C84.3161 15.4693 84.4068 16.0507 84.5668 16.584C84.7374 17.1173 84.9881 17.576 85.3188 17.96C85.6494 18.344 86.0548 18.6427 86.5348 18.856C87.0254 19.0693 87.6014 19.176 88.2628 19.176C89.2014 19.176 89.9801 18.9413 90.5988 18.472C91.2174 18.0027 91.6174 17.304 91.7987 16.376ZM97.0645 19L100.089 10.728H98.6645L96.4085 17.624H96.3765L94.0565 10.728H92.5365L95.6085 19H97.0645ZM107.081 14.072H102.329C102.35 13.752 102.419 13.4533 102.537 13.176C102.654 12.888 102.814 12.6373 103.017 12.424C103.219 12.2107 103.459 12.0453 103.737 11.928C104.025 11.8 104.345 11.736 104.697 11.736C105.038 11.736 105.347 11.8 105.625 11.928C105.913 12.0453 106.158 12.2107 106.361 12.424C106.574 12.6267 106.739 12.872 106.857 13.16C106.985 13.448 107.059 13.752 107.081 14.072ZM108.392 16.376H107.049C106.931 16.92 106.686 17.3253 106.313 17.592C105.95 17.8587 105.481 17.992 104.905 17.992C104.457 17.992 104.067 17.9173 103.737 17.768C103.406 17.6187 103.134 17.4213 102.921 17.176C102.707 16.92 102.553 16.632 102.457 16.312C102.361 15.9813 102.318 15.6347 102.329 15.272H108.521C108.542 14.7707 108.494 14.2427 108.377 13.688C108.27 13.1333 108.067 12.6213 107.769 12.152C107.481 11.6827 107.091 11.2987 106.601 11C106.121 10.6907 105.513 10.536 104.777 10.536C104.211 10.536 103.689 10.6427 103.209 10.856C102.739 11.0693 102.329 11.368 101.977 11.752C101.635 12.136 101.369 12.5893 101.177 13.112C100.985 13.6347 100.889 14.2107 100.889 14.84C100.91 15.4693 101.001 16.0507 101.161 16.584C101.331 17.1173 101.582 17.576 101.913 17.96C102.243 18.344 102.649 18.6427 103.129 18.856C103.619 19.0693 104.195 19.176 104.857 19.176C105.795 19.176 106.574 18.9413 107.193 18.472C107.811 18.0027 108.211 17.304 108.392 16.376ZM110.01 7.576V19H111.37V7.576H110.01ZM114.469 14.872C114.469 14.3707 114.533 13.928 114.661 13.544C114.8 13.1493 114.986 12.8187 115.221 12.552C115.456 12.2853 115.728 12.0827 116.037 11.944C116.357 11.8053 116.693 11.736 117.045 11.736C117.397 11.736 117.728 11.8053 118.037 11.944C118.357 12.0827 118.634 12.2853 118.869 12.552C119.104 12.8187 119.285 13.1493 119.413 13.544C119.552 13.928 119.621 14.3707 119.621 14.872C119.621 15.3733 119.552 15.8213 119.413 16.216C119.285 16.6 119.104 16.9253 118.869 17.192C118.634 17.448 118.357 17.6453 118.037 17.784C117.728 17.9227 117.397 17.992 117.045 17.992C116.693 17.992 116.357 17.9227 116.037 17.784C115.728 17.6453 115.456 17.448 115.221 17.192C114.986 16.9253 114.8 16.6 114.661 16.216C114.533 15.8213 114.469 15.3733 114.469 14.872ZM113.029 14.872C113.029 15.48 113.114 16.0453 113.285 16.568C113.456 17.0907 113.712 17.5493 114.053 17.944C114.394 18.328 114.816 18.632 115.317 18.856C115.818 19.0693 116.394 19.176 117.045 19.176C117.706 19.176 118.282 19.0693 118.773 18.856C119.274 18.632 119.696 18.328 120.037 17.944C120.378 17.5493 120.634 17.0907 120.805 16.568C120.976 16.0453 121.061 15.48 121.061 14.872C121.061 14.264 120.976 13.6987 120.805 13.176C120.634 12.6427 120.378 12.184 120.037 11.8C119.696 11.4053 119.274 11.096 118.773 10.872C118.282 10.648 117.706 10.536 117.045 10.536C116.394 10.536 115.818 10.648 115.317 10.872C114.816 11.096 114.394 11.4053 114.053 11.8C113.712 12.184 113.456 12.6427 113.285 13.176C113.114 13.6987 113.029 14.264 113.029 14.872ZM122.713 10.728V22.152H124.073V17.896H124.105C124.254 18.1413 124.435 18.3493 124.649 18.52C124.873 18.68 125.107 18.808 125.353 18.904C125.598 19 125.843 19.0693 126.089 19.112C126.345 19.1547 126.574 19.176 126.777 19.176C127.406 19.176 127.955 19.064 128.425 18.84C128.905 18.616 129.299 18.312 129.609 17.928C129.929 17.5333 130.163 17.0747 130.313 16.552C130.473 16.0293 130.553 15.4747 130.553 14.888C130.553 14.3013 130.473 13.7467 130.313 13.224C130.153 12.7013 129.913 12.2427 129.593 11.848C129.283 11.4427 128.889 11.1227 128.409 10.888C127.939 10.6533 127.385 10.536 126.745 10.536C126.169 10.536 125.641 10.6427 125.161 10.856C124.681 11.0587 124.329 11.3893 124.105 11.848H124.073V10.728H122.713ZM129.113 14.792C129.113 15.1973 129.07 15.592 128.985 15.976C128.899 16.36 128.761 16.7013 128.569 17C128.377 17.2987 128.121 17.5387 127.801 17.72C127.491 17.9013 127.102 17.992 126.633 17.992C126.163 17.992 125.763 17.9067 125.433 17.736C125.102 17.5547 124.83 17.32 124.617 17.032C124.414 16.744 124.265 16.4133 124.169 16.04C124.073 15.656 124.025 15.2613 124.025 14.856C124.025 14.472 124.067 14.0933 124.153 13.72C124.249 13.3467 124.398 13.016 124.601 12.728C124.803 12.4293 125.065 12.1893 125.385 12.008C125.705 11.8267 126.094 11.736 126.553 11.736C126.99 11.736 127.369 11.8213 127.689 11.992C128.019 12.1627 128.286 12.392 128.489 12.68C128.702 12.968 128.857 13.2987 128.953 13.672C129.059 14.0347 129.113 14.408 129.113 14.792ZM137.893 14.072H133.141C133.162 13.752 133.232 13.4533 133.349 13.176C133.466 12.888 133.626 12.6373 133.829 12.424C134.032 12.2107 134.272 12.0453 134.549 11.928C134.837 11.8 135.157 11.736 135.509 11.736C135.85 11.736 136.16 11.8 136.437 11.928C136.725 12.0453 136.97 12.2107 137.173 12.424C137.386 12.6267 137.552 12.872 137.669 13.16C137.797 13.448 137.872 13.752 137.893 14.072ZM139.205 16.376H137.861C137.744 16.92 137.498 17.3253 137.125 17.592C136.762 17.8587 136.293 17.992 135.717 17.992C135.269 17.992 134.88 17.9173 134.549 17.768C134.218 17.6187 133.946 17.4213 133.733 17.176C133.52 16.92 133.365 16.632 133.269 16.312C133.173 15.9813 133.13 15.6347 133.141 15.272H139.333C139.354 14.7707 139.306 14.2427 139.189 13.688C139.082 13.1333 138.88 12.6213 138.581 12.152C138.293 11.6827 137.904 11.2987 137.413 11C136.933 10.6907 136.325 10.536 135.589 10.536C135.024 10.536 134.501 10.6427 134.021 10.856C133.552 11.0693 133.141 11.368 132.789 11.752C132.448 12.136 132.181 12.5893 131.989 13.112C131.797 13.6347 131.701 14.2107 131.701 14.84C131.722 15.4693 131.813 16.0507 131.973 16.584C132.144 17.1173 132.394 17.576 132.725 17.96C133.056 18.344 133.461 18.6427 133.941 18.856C134.432 19.0693 135.008 19.176 135.669 19.176C136.608 19.176 137.386 18.9413 138.005 18.472C138.624 18.0027 139.024 17.304 139.205 16.376ZM140.695 10.728V19H142.055V15.32C142.055 14.7867 142.108 14.3173 142.215 13.912C142.321 13.496 142.492 13.144 142.727 12.856C142.961 12.568 143.271 12.3493 143.655 12.2C144.039 12.0507 144.503 11.976 145.047 11.976V10.536C144.311 10.5147 143.703 10.664 143.223 10.984C142.743 11.304 142.337 11.8 142.007 12.472H141.975V10.728H140.695Z" fill="white"/>
<path d="M1.584 53.928V61H2.944V53.928H4.544V52.728H2.944V51.576C2.944 51.2133 3.03467 50.968 3.216 50.84C3.39733 50.712 3.65333 50.648 3.984 50.648C4.10133 50.648 4.22933 50.6587 4.368 50.68C4.50667 50.6907 4.63467 50.7173 4.752 50.76V49.576C4.624 49.5333 4.47467 49.5013 4.304 49.48C4.144 49.4587 4 49.448 3.872 49.448C3.12533 49.448 2.55467 49.624 2.16 49.976C1.776 50.3173 1.584 50.824 1.584 51.496V52.728H0.192V53.928H1.584ZM13.0864 60.968C12.8517 61.1067 12.5264 61.176 12.1104 61.176C11.7584 61.176 11.4757 61.08 11.2624 60.888C11.0597 60.6853 10.9584 60.36 10.9584 59.912C10.585 60.36 10.1477 60.6853 9.64638 60.888C9.15571 61.08 8.62238 61.176 8.04638 61.176C7.67304 61.176 7.31571 61.1333 6.97438 61.048C6.64371 60.9627 6.35571 60.8293 6.11038 60.648C5.86504 60.4667 5.66771 60.232 5.51838 59.944C5.37971 59.6453 5.31038 59.288 5.31038 58.872C5.31038 58.4027 5.39038 58.0187 5.55038 57.72C5.71038 57.4213 5.91838 57.1813 6.17438 57C6.44104 56.808 6.73971 56.664 7.07038 56.568C7.41171 56.472 7.75838 56.392 8.11038 56.328C8.48371 56.2533 8.83571 56.2 9.16638 56.168C9.50771 56.1253 9.80638 56.072 10.0624 56.008C10.3184 55.9333 10.521 55.832 10.6704 55.704C10.8197 55.5653 10.8944 55.368 10.8944 55.112C10.8944 54.8133 10.8357 54.5733 10.7184 54.392C10.6117 54.2107 10.4677 54.072 10.2864 53.976C10.1157 53.88 9.91838 53.816 9.69438 53.784C9.48104 53.752 9.26771 53.736 9.05438 53.736C8.47838 53.736 7.99838 53.848 7.61438 54.072C7.23038 54.2853 7.02238 54.696 6.99038 55.304H5.63038C5.65171 54.792 5.75838 54.36 5.95038 54.008C6.14238 53.656 6.39838 53.3733 6.71838 53.16C7.03838 52.936 7.40104 52.776 7.80638 52.68C8.22238 52.584 8.66504 52.536 9.13438 52.536C9.50771 52.536 9.87571 52.5627 10.2384 52.616C10.6117 52.6693 10.9477 52.7813 11.2464 52.952C11.545 53.112 11.785 53.3413 11.9664 53.64C12.1477 53.9387 12.2384 54.328 12.2384 54.808V59.064C12.2384 59.384 12.2544 59.6187 12.2864 59.768C12.329 59.9173 12.457 59.992 12.6704 59.992C12.7877 59.992 12.9264 59.9653 13.0864 59.912V60.968ZM10.8784 56.728C10.7077 56.856 10.4837 56.952 10.2064 57.016C9.92904 57.0693 9.63571 57.1173 9.32638 57.16C9.02771 57.192 8.72371 57.2347 8.41438 57.288C8.10504 57.3307 7.82771 57.4053 7.58238 57.512C7.33704 57.6187 7.13438 57.7733 6.97438 57.976C6.82504 58.168 6.75038 58.4347 6.75038 58.776C6.75038 59 6.79304 59.192 6.87838 59.352C6.97438 59.5013 7.09171 59.624 7.23038 59.72C7.37971 59.816 7.55038 59.8853 7.74238 59.928C7.93438 59.9707 8.13704 59.992 8.35038 59.992C8.79838 59.992 9.18238 59.9333 9.50238 59.816C9.82238 59.688 10.0837 59.5333 10.2864 59.352C10.489 59.16 10.6384 58.9573 10.7344 58.744C10.8304 58.52 10.8784 58.312 10.8784 58.12V56.728ZM14.3041 52.728V61H15.6641V57.32C15.6641 56.7867 15.7175 56.3173 15.8241 55.912C15.9308 55.496 16.1015 55.144 16.3361 54.856C16.5708 54.568 16.8801 54.3493 17.2641 54.2C17.6481 54.0507 18.1121 53.976 18.6561 53.976V52.536C17.9201 52.5147 17.3121 52.664 16.8321 52.984C16.3521 53.304 15.9468 53.8 15.6161 54.472H15.5841V52.728H14.3041ZM27.0083 60.968C26.7736 61.1067 26.4483 61.176 26.0323 61.176C25.6803 61.176 25.3976 61.08 25.1843 60.888C24.9816 60.6853 24.8803 60.36 24.8803 59.912C24.5069 60.36 24.0696 60.6853 23.5683 60.888C23.0776 61.08 22.5443 61.176 21.9683 61.176C21.5949 61.176 21.2376 61.1333 20.8963 61.048C20.5656 60.9627 20.2776 60.8293 20.0323 60.648C19.7869 60.4667 19.5896 60.232 19.4403 59.944C19.3016 59.6453 19.2323 59.288 19.2323 58.872C19.2323 58.4027 19.3123 58.0187 19.4723 57.72C19.6323 57.4213 19.8403 57.1813 20.0963 57C20.3629 56.808 20.6616 56.664 20.9923 56.568C21.3336 56.472 21.6803 56.392 22.0323 56.328C22.4056 56.2533 22.7576 56.2 23.0883 56.168C23.4296 56.1253 23.7283 56.072 23.9843 56.008C24.2403 55.9333 24.4429 55.832 24.5923 55.704C24.7416 55.5653 24.8163 55.368 24.8163 55.112C24.8163 54.8133 24.7576 54.5733 24.6403 54.392C24.5336 54.2107 24.3896 54.072 24.2083 53.976C24.0376 53.88 23.8403 53.816 23.6163 53.784C23.4029 53.752 23.1896 53.736 22.9763 53.736C22.4003 53.736 21.9203 53.848 21.5363 54.072C21.1523 54.2853 20.9443 54.696 20.9123 55.304H19.5523C19.5736 54.792 19.6803 54.36 19.8723 54.008C20.0643 53.656 20.3203 53.3733 20.6403 53.16C20.9603 52.936 21.3229 52.776 21.7283 52.68C22.1443 52.584 22.5869 52.536 23.0563 52.536C23.4296 52.536 23.7976 52.5627 24.1603 52.616C24.5336 52.6693 24.8696 52.7813 25.1683 52.952C25.4669 53.112 25.7069 53.3413 25.8883 53.64C26.0696 53.9387 26.1603 54.328 26.1603 54.808V59.064C26.1603 59.384 26.1763 59.6187 26.2083 59.768C26.2509 59.9173 26.3789 59.992 26.5923 59.992C26.7096 59.992 26.8483 59.9653 27.0083 59.912V60.968ZM24.8003 56.728C24.6296 56.856 24.4056 56.952 24.1283 57.016C23.8509 57.0693 23.5576 57.1173 23.2483 57.16C22.9496 57.192 22.6456 57.2347 22.3363 57.288C22.0269 57.3307 21.7496 57.4053 21.5043 57.512C21.2589 57.6187 21.0563 57.7733 20.8963 57.976C20.7469 58.168 20.6723 58.4347 20.6723 58.776C20.6723 59 20.7149 59.192 20.8003 59.352C20.8963 59.5013 21.0136 59.624 21.1523 59.72C21.3016 59.816 21.4723 59.8853 21.6643 59.928C21.8563 59.9707 22.0589 59.992 22.2723 59.992C22.7203 59.992 23.1043 59.9333 23.4243 59.816C23.7443 59.688 24.0056 59.5333 24.2083 59.352C24.4109 59.16 24.5603 58.9573 24.6563 58.744C24.7523 58.52 24.8003 58.312 24.8003 58.12V56.728ZM28.274 49.576V61H29.634V56.328C29.634 55.9547 29.682 55.6133 29.778 55.304C29.8847 54.984 30.0393 54.7067 30.242 54.472C30.4447 54.2373 30.6953 54.056 30.994 53.928C31.3033 53.8 31.666 53.736 32.082 53.736C32.6047 53.736 33.0153 53.8853 33.314 54.184C33.6127 54.4827 33.762 54.888 33.762 55.4V61H35.122V55.56C35.122 55.112 35.074 54.7067 34.978 54.344C34.8927 53.9707 34.738 53.6507 34.514 53.384C34.29 53.1173 33.9967 52.9093 33.634 52.76C33.2713 52.6107 32.818 52.536 32.274 52.536C32.0287 52.536 31.7727 52.5627 31.506 52.616C31.25 52.6693 30.9993 52.7547 30.754 52.872C30.5193 52.9787 30.306 53.1227 30.114 53.304C29.922 53.4747 29.7727 53.688 29.666 53.944H29.634V49.576H28.274ZM37.4686 59.224V61H39.2446V59.224H37.4686ZM48.9458 60.968C48.7111 61.1067 48.3858 61.176 47.9698 61.176C47.6178 61.176 47.3351 61.08 47.1218 60.888C46.9191 60.6853 46.8178 60.36 46.8178 59.912C46.4444 60.36 46.0071 60.6853 45.5058 60.888C45.0151 61.08 44.4818 61.176 43.9058 61.176C43.5324 61.176 43.1751 61.1333 42.8338 61.048C42.5031 60.9627 42.2151 60.8293 41.9698 60.648C41.7244 60.4667 41.5271 60.232 41.3778 59.944C41.2391 59.6453 41.1698 59.288 41.1698 58.872C41.1698 58.4027 41.2498 58.0187 41.4098 57.72C41.5698 57.4213 41.7778 57.1813 42.0338 57C42.3004 56.808 42.5991 56.664 42.9298 56.568C43.2711 56.472 43.6178 56.392 43.9698 56.328C44.3431 56.2533 44.6951 56.2 45.0258 56.168C45.3671 56.1253 45.6658 56.072 45.9218 56.008C46.1778 55.9333 46.3804 55.832 46.5298 55.704C46.6791 55.5653 46.7538 55.368 46.7538 55.112C46.7538 54.8133 46.6951 54.5733 46.5778 54.392C46.4711 54.2107 46.3271 54.072 46.1458 53.976C45.9751 53.88 45.7778 53.816 45.5538 53.784C45.3404 53.752 45.1271 53.736 44.9138 53.736C44.3378 53.736 43.8578 53.848 43.4738 54.072C43.0898 54.2853 42.8818 54.696 42.8498 55.304H41.4898C41.5111 54.792 41.6178 54.36 41.8098 54.008C42.0018 53.656 42.2578 53.3733 42.5778 53.16C42.8978 52.936 43.2604 52.776 43.6658 52.68C44.0818 52.584 44.5244 52.536 44.9938 52.536C45.3671 52.536 45.7351 52.5627 46.0978 52.616C46.4711 52.6693 46.8071 52.7813 47.1058 52.952C47.4044 53.112 47.6444 53.3413 47.8258 53.64C48.0071 53.9387 48.0978 54.328 48.0978 54.808V59.064C48.0978 59.384 48.1138 59.6187 48.1458 59.768C48.1884 59.9173 48.3164 59.992 48.5298 59.992C48.6471 59.992 48.7858 59.9653 48.9458 59.912V60.968ZM46.7378 56.728C46.5671 56.856 46.3431 56.952 46.0658 57.016C45.7884 57.0693 45.4951 57.1173 45.1858 57.16C44.8871 57.192 44.5831 57.2347 44.2738 57.288C43.9644 57.3307 43.6871 57.4053 43.4418 57.512C43.1964 57.6187 42.9938 57.7733 42.8338 57.976C42.6844 58.168 42.6098 58.4347 42.6098 58.776C42.6098 59 42.6524 59.192 42.7378 59.352C42.8338 59.5013 42.9511 59.624 43.0898 59.72C43.2391 59.816 43.4098 59.8853 43.6018 59.928C43.7938 59.9707 43.9964 59.992 44.2098 59.992C44.6578 59.992 45.0418 59.9333 45.3618 59.816C45.6818 59.688 45.9431 59.5333 46.1458 59.352C46.3484 59.16 46.4978 58.9573 46.5938 58.744C46.6898 58.52 46.7378 58.312 46.7378 58.12V56.728ZM50.2915 49.576V61H51.6515V49.576H50.2915ZM53.7584 49.576V61H55.1184V56.328C55.1184 55.9547 55.1664 55.6133 55.2624 55.304C55.369 54.984 55.5237 54.7067 55.7264 54.472C55.929 54.2373 56.1797 54.056 56.4784 53.928C56.7877 53.8 57.1504 53.736 57.5664 53.736C58.089 53.736 58.4997 53.8853 58.7984 54.184C59.097 54.4827 59.2464 54.888 59.2464 55.4V61H60.6064V55.56C60.6064 55.112 60.5584 54.7067 60.4624 54.344C60.377 53.9707 60.2224 53.6507 59.9984 53.384C59.7744 53.1173 59.481 52.9093 59.1184 52.76C58.7557 52.6107 58.3024 52.536 57.7584 52.536C57.513 52.536 57.257 52.5627 56.9904 52.616C56.7344 52.6693 56.4837 52.7547 56.2384 52.872C56.0037 52.9787 55.7904 53.1227 55.5984 53.304C55.4064 53.4747 55.257 53.688 55.1504 53.944H55.1184V49.576H53.7584ZM69.977 60.968C69.7423 61.1067 69.417 61.176 69.001 61.176C68.649 61.176 68.3663 61.08 68.153 60.888C67.9503 60.6853 67.849 60.36 67.849 59.912C67.4757 60.36 67.0383 60.6853 66.537 60.888C66.0463 61.08 65.513 61.176 64.937 61.176C64.5637 61.176 64.2063 61.1333 63.865 61.048C63.5343 60.9627 63.2463 60.8293 63.001 60.648C62.7557 60.4667 62.5583 60.232 62.409 59.944C62.2703 59.6453 62.201 59.288 62.201 58.872C62.201 58.4027 62.281 58.0187 62.441 57.72C62.601 57.4213 62.809 57.1813 63.065 57C63.3317 56.808 63.6303 56.664 63.961 56.568C64.3023 56.472 64.649 56.392 65.001 56.328C65.3743 56.2533 65.7263 56.2 66.057 56.168C66.3983 56.1253 66.697 56.072 66.953 56.008C67.209 55.9333 67.4117 55.832 67.561 55.704C67.7103 55.5653 67.785 55.368 67.785 55.112C67.785 54.8133 67.7263 54.5733 67.609 54.392C67.5023 54.2107 67.3583 54.072 67.177 53.976C67.0063 53.88 66.809 53.816 66.585 53.784C66.3717 53.752 66.1583 53.736 65.945 53.736C65.369 53.736 64.889 53.848 64.505 54.072C64.121 54.2853 63.913 54.696 63.881 55.304H62.521C62.5423 54.792 62.649 54.36 62.841 54.008C63.033 53.656 63.289 53.3733 63.609 53.16C63.929 52.936 64.2917 52.776 64.697 52.68C65.113 52.584 65.5557 52.536 66.025 52.536C66.3983 52.536 66.7663 52.5627 67.129 52.616C67.5023 52.6693 67.8383 52.7813 68.137 52.952C68.4357 53.112 68.6757 53.3413 68.857 53.64C69.0383 53.9387 69.129 54.328 69.129 54.808V59.064C69.129 59.384 69.145 59.6187 69.177 59.768C69.2197 59.9173 69.3477 59.992 69.561 59.992C69.6783 59.992 69.817 59.9653 69.977 59.912V60.968ZM67.769 56.728C67.5983 56.856 67.3743 56.952 67.097 57.016C66.8197 57.0693 66.5263 57.1173 66.217 57.16C65.9183 57.192 65.6143 57.2347 65.305 57.288C64.9957 57.3307 64.7183 57.4053 64.473 57.512C64.2277 57.6187 64.025 57.7733 63.865 57.976C63.7157 58.168 63.641 58.4347 63.641 58.776C63.641 59 63.6837 59.192 63.769 59.352C63.865 59.5013 63.9823 59.624 64.121 59.72C64.2703 59.816 64.441 59.8853 64.633 59.928C64.825 59.9707 65.0277 59.992 65.241 59.992C65.689 59.992 66.073 59.9333 66.393 59.816C66.713 59.688 66.9743 59.5333 67.177 59.352C67.3797 59.16 67.529 58.9573 67.625 58.744C67.721 58.52 67.769 58.312 67.769 58.12V56.728ZM72.2348 56.936C72.2348 56.5307 72.2774 56.136 72.3628 55.752C72.4481 55.368 72.5868 55.0267 72.7788 54.728C72.9708 54.4293 73.2268 54.1893 73.5468 54.008C73.8668 53.8267 74.2561 53.736 74.7148 53.736C75.1841 53.736 75.5841 53.8267 75.9148 54.008C76.2454 54.1787 76.5121 54.408 76.7148 54.696C76.9281 54.984 77.0828 55.32 77.1788 55.704C77.2748 56.0773 77.3228 56.4667 77.3228 56.872C77.3228 57.256 77.2748 57.6347 77.1788 58.008C77.0934 58.3813 76.9494 58.7173 76.7468 59.016C76.5441 59.304 76.2828 59.5387 75.9628 59.72C75.6428 59.9013 75.2534 59.992 74.7948 59.992C74.3574 59.992 73.9734 59.9067 73.6428 59.736C73.3228 59.5653 73.0561 59.336 72.8428 59.048C72.6401 58.76 72.4854 58.4347 72.3788 58.072C72.2828 57.6987 72.2348 57.32 72.2348 56.936ZM78.6348 61V49.576H77.2748V53.832H77.2428C77.0934 53.5867 76.9068 53.384 76.6828 53.224C76.4694 53.0533 76.2401 52.92 75.9948 52.824C75.7494 52.7173 75.5041 52.6427 75.2588 52.6C75.0134 52.5573 74.7841 52.536 74.5708 52.536C73.9414 52.536 73.3868 52.6533 72.9068 52.888C72.4374 53.112 72.0428 53.4213 71.7228 53.816C71.4134 54.2 71.1788 54.6533 71.0188 55.176C70.8694 55.6987 70.7948 56.2533 70.7948 56.84C70.7948 57.4267 70.8748 57.9813 71.0348 58.504C71.1948 59.0267 71.4294 59.4853 71.7388 59.88C72.0588 60.2747 72.4534 60.5893 72.9228 60.824C73.4028 61.0587 73.9628 61.176 74.6028 61.176C75.1788 61.176 75.7068 61.0747 76.1868 60.872C76.6668 60.6693 77.0188 60.3387 77.2428 59.88H77.2748V61H78.6348ZM81.7191 56.936C81.7191 56.5307 81.7618 56.136 81.8471 55.752C81.9325 55.368 82.0711 55.0267 82.2631 54.728C82.4551 54.4293 82.7111 54.1893 83.0311 54.008C83.3511 53.8267 83.7405 53.736 84.1991 53.736C84.6685 53.736 85.0685 53.8267 85.3991 54.008C85.7298 54.1787 85.9965 54.408 86.1991 54.696C86.4125 54.984 86.5671 55.32 86.6631 55.704C86.7591 56.0773 86.8071 56.4667 86.8071 56.872C86.8071 57.256 86.7591 57.6347 86.6631 58.008C86.5778 58.3813 86.4338 58.7173 86.2311 59.016C86.0285 59.304 85.7671 59.5387 85.4471 59.72C85.1271 59.9013 84.7378 59.992 84.2791 59.992C83.8418 59.992 83.4578 59.9067 83.1271 59.736C82.8071 59.5653 82.5405 59.336 82.3271 59.048C82.1245 58.76 81.9698 58.4347 81.8631 58.072C81.7671 57.6987 81.7191 57.32 81.7191 56.936ZM88.1191 61V49.576H86.7591V53.832H86.7271C86.5778 53.5867 86.3911 53.384 86.1671 53.224C85.9538 53.0533 85.7245 52.92 85.4791 52.824C85.2338 52.7173 84.9885 52.6427 84.7431 52.6C84.4978 52.5573 84.2685 52.536 84.0551 52.536C83.4258 52.536 82.8711 52.6533 82.3911 52.888C81.9218 53.112 81.5271 53.4213 81.2071 53.816C80.8978 54.2 80.6631 54.6533 80.5031 55.176C80.3538 55.6987 80.2791 56.2533 80.2791 56.84C80.2791 57.4267 80.3591 57.9813 80.5191 58.504C80.6791 59.0267 80.9138 59.4853 81.2231 59.88C81.5431 60.2747 81.9378 60.5893 82.4071 60.824C82.8871 61.0587 83.4471 61.176 84.0871 61.176C84.6631 61.176 85.1911 61.0747 85.6711 60.872C86.1511 60.6693 86.5031 60.3387 86.7271 59.88H86.7591V61H88.1191ZM97.5395 60.968C97.3048 61.1067 96.9795 61.176 96.5635 61.176C96.2115 61.176 95.9288 61.08 95.7155 60.888C95.5128 60.6853 95.4115 60.36 95.4115 59.912C95.0382 60.36 94.6008 60.6853 94.0995 60.888C93.6088 61.08 93.0755 61.176 92.4995 61.176C92.1262 61.176 91.7688 61.1333 91.4275 61.048C91.0968 60.9627 90.8088 60.8293 90.5635 60.648C90.3182 60.4667 90.1208 60.232 89.9715 59.944C89.8328 59.6453 89.7635 59.288 89.7635 58.872C89.7635 58.4027 89.8435 58.0187 90.0035 57.72C90.1635 57.4213 90.3715 57.1813 90.6275 57C90.8942 56.808 91.1928 56.664 91.5235 56.568C91.8648 56.472 92.2115 56.392 92.5635 56.328C92.9368 56.2533 93.2888 56.2 93.6195 56.168C93.9608 56.1253 94.2595 56.072 94.5155 56.008C94.7715 55.9333 94.9742 55.832 95.1235 55.704C95.2728 55.5653 95.3475 55.368 95.3475 55.112C95.3475 54.8133 95.2888 54.5733 95.1715 54.392C95.0648 54.2107 94.9208 54.072 94.7395 53.976C94.5688 53.88 94.3715 53.816 94.1475 53.784C93.9342 53.752 93.7208 53.736 93.5075 53.736C92.9315 53.736 92.4515 53.848 92.0675 54.072C91.6835 54.2853 91.4755 54.696 91.4435 55.304H90.0835C90.1048 54.792 90.2115 54.36 90.4035 54.008C90.5955 53.656 90.8515 53.3733 91.1715 53.16C91.4915 52.936 91.8542 52.776 92.2595 52.68C92.6755 52.584 93.1182 52.536 93.5875 52.536C93.9608 52.536 94.3288 52.5627 94.6915 52.616C95.0648 52.6693 95.4008 52.7813 95.6995 52.952C95.9982 53.112 96.2382 53.3413 96.4195 53.64C96.6008 53.9387 96.6915 54.328 96.6915 54.808V59.064C96.6915 59.384 96.7075 59.6187 96.7395 59.768C96.7822 59.9173 96.9102 59.992 97.1235 59.992C97.2408 59.992 97.3795 59.9653 97.5395 59.912V60.968ZM95.3315 56.728C95.1608 56.856 94.9368 56.952 94.6595 57.016C94.3822 57.0693 94.0888 57.1173 93.7795 57.16C93.4808 57.192 93.1768 57.2347 92.8675 57.288C92.5582 57.3307 92.2808 57.4053 92.0355 57.512C91.7902 57.6187 91.5875 57.7733 91.4275 57.976C91.2782 58.168 91.2035 58.4347 91.2035 58.776C91.2035 59 91.2462 59.192 91.3315 59.352C91.4275 59.5013 91.5448 59.624 91.6835 59.72C91.8328 59.816 92.0035 59.8853 92.1955 59.928C92.3875 59.9707 92.5902 59.992 92.8035 59.992C93.2515 59.992 93.6355 59.9333 93.9555 59.816C94.2755 59.688 94.5368 59.5333 94.7395 59.352C94.9422 59.16 95.0915 58.9573 95.1875 58.744C95.2835 58.52 95.3315 58.312 95.3315 58.12V56.728ZM99.7973 56.936C99.7973 56.5307 99.8399 56.136 99.9253 55.752C100.011 55.368 100.149 55.0267 100.341 54.728C100.533 54.4293 100.789 54.1893 101.109 54.008C101.429 53.8267 101.819 53.736 102.277 53.736C102.747 53.736 103.147 53.8267 103.477 54.008C103.808 54.1787 104.075 54.408 104.277 54.696C104.491 54.984 104.645 55.32 104.741 55.704C104.837 56.0773 104.885 56.4667 104.885 56.872C104.885 57.256 104.837 57.6347 104.741 58.008C104.656 58.3813 104.512 58.7173 104.309 59.016C104.107 59.304 103.845 59.5387 103.525 59.72C103.205 59.9013 102.816 59.992 102.357 59.992C101.92 59.992 101.536 59.9067 101.205 59.736C100.885 59.5653 100.619 59.336 100.405 59.048C100.203 58.76 100.048 58.4347 99.9413 58.072C99.8453 57.6987 99.7973 57.32 99.7973 56.936ZM106.197 61V49.576H104.837V53.832H104.805C104.656 53.5867 104.469 53.384 104.245 53.224C104.032 53.0533 103.803 52.92 103.557 52.824C103.312 52.7173 103.067 52.6427 102.821 52.6C102.576 52.5573 102.347 52.536 102.133 52.536C101.504 52.536 100.949 52.6533 100.469 52.888C99.9999 53.112 99.6053 53.4213 99.2853 53.816C98.9759 54.2 98.7413 54.6533 98.5813 55.176C98.4319 55.6987 98.3573 56.2533 98.3573 56.84C98.3573 57.4267 98.4373 57.9813 98.5973 58.504C98.7573 59.0267 98.9919 59.4853 99.3013 59.88C99.6213 60.2747 100.016 60.5893 100.485 60.824C100.965 61.0587 101.525 61.176 102.165 61.176C102.741 61.176 103.269 61.0747 103.749 60.872C104.229 60.6693 104.581 60.3387 104.805 59.88H104.837V61H106.197ZM115.81 56.68L117.154 52.136H116.146L115.778 53.144C115.596 52.664 115.346 52.328 115.026 52.136C114.706 51.9333 114.359 51.832 113.986 51.832C113.42 51.832 112.903 51.9653 112.434 52.232C111.975 52.4987 111.58 52.8453 111.25 53.272C110.93 53.6987 110.679 54.184 110.498 54.728C110.316 55.272 110.226 55.8213 110.226 56.376C110.226 56.728 110.279 57.0587 110.386 57.368C110.503 57.6773 110.658 57.944 110.85 58.168C111.052 58.392 111.292 58.5733 111.57 58.712C111.858 58.84 112.172 58.904 112.514 58.904C112.908 58.904 113.276 58.7973 113.618 58.584C113.959 58.36 114.252 58.1093 114.498 57.832H114.546C114.567 58.184 114.674 58.4453 114.866 58.616C115.058 58.7867 115.292 58.872 115.57 58.872C115.943 58.872 116.348 58.76 116.786 58.536C117.223 58.312 117.628 57.9973 118.002 57.592C118.375 57.1867 118.684 56.7013 118.93 56.136C119.186 55.56 119.314 54.9253 119.314 54.232C119.314 53.5067 119.17 52.8453 118.882 52.248C118.594 51.64 118.199 51.1227 117.698 50.696C117.207 50.2587 116.631 49.9173 115.97 49.672C115.308 49.4267 114.61 49.304 113.874 49.304C113.063 49.304 112.295 49.4587 111.57 49.768C110.855 50.0773 110.226 50.504 109.682 51.048C109.148 51.5813 108.722 52.2107 108.402 52.936C108.092 53.6507 107.938 54.4187 107.938 55.24C107.938 56.0933 108.092 56.888 108.402 57.624C108.711 58.3493 109.132 58.984 109.666 59.528C110.21 60.0613 110.844 60.4827 111.57 60.792C112.306 61.1013 113.095 61.256 113.938 61.256C114.45 61.256 114.951 61.192 115.442 61.064C115.932 60.9467 116.391 60.7707 116.818 60.536C117.255 60.2907 117.655 59.9973 118.018 59.656C118.38 59.304 118.69 58.904 118.946 58.456H117.938C117.479 59.0427 116.892 59.512 116.178 59.864C115.474 60.216 114.738 60.392 113.97 60.392C113.298 60.392 112.663 60.264 112.066 60.008C111.468 59.7413 110.94 59.384 110.482 58.936C110.034 58.4773 109.676 57.9387 109.41 57.32C109.154 56.7013 109.026 56.0347 109.026 55.32C109.026 54.616 109.148 53.9547 109.394 53.336C109.65 52.7173 109.996 52.1733 110.434 51.704C110.871 51.2347 111.383 50.8667 111.97 50.6C112.567 50.3227 113.207 50.184 113.89 50.184C114.455 50.184 114.994 50.28 115.506 50.472C116.028 50.664 116.492 50.9413 116.898 51.304C117.303 51.656 117.623 52.088 117.858 52.6C118.103 53.112 118.226 53.6827 118.226 54.312C118.226 54.7387 118.156 55.1707 118.018 55.608C117.879 56.0453 117.703 56.44 117.49 56.792C117.276 57.144 117.036 57.432 116.77 57.656C116.514 57.88 116.263 57.992 116.018 57.992C115.762 57.992 115.634 57.8267 115.634 57.496C115.634 57.3787 115.65 57.2507 115.682 57.112C115.724 56.9627 115.767 56.8187 115.81 56.68ZM113.986 52.92C114.156 52.92 114.316 52.9627 114.466 53.048C114.626 53.1333 114.764 53.2453 114.882 53.384C115.01 53.512 115.106 53.6667 115.17 53.848C115.244 54.0293 115.282 54.216 115.282 54.408C115.282 54.7387 115.218 55.1013 115.09 55.496C114.962 55.8907 114.786 56.264 114.562 56.616C114.338 56.9573 114.076 57.2453 113.778 57.48C113.479 57.704 113.154 57.816 112.802 57.816C112.396 57.816 112.066 57.672 111.81 57.384C111.554 57.0853 111.426 56.712 111.426 56.264C111.426 55.912 111.49 55.544 111.618 55.16C111.746 54.7653 111.922 54.4027 112.146 54.072C112.37 53.7413 112.636 53.4693 112.946 53.256C113.266 53.032 113.612 52.92 113.986 52.92ZM121.087 49.576V61H122.447V56.328C122.447 55.9547 122.495 55.6133 122.591 55.304C122.697 54.984 122.852 54.7067 123.055 54.472C123.257 54.2373 123.508 54.056 123.807 53.928C124.116 53.8 124.479 53.736 124.895 53.736C125.417 53.736 125.828 53.8853 126.127 54.184C126.425 54.4827 126.575 54.888 126.575 55.4V61H127.935V55.56C127.935 55.112 127.887 54.7067 127.791 54.344C127.705 53.9707 127.551 53.6507 127.327 53.384C127.103 53.1173 126.809 52.9093 126.447 52.76C126.084 52.6107 125.631 52.536 125.087 52.536C124.841 52.536 124.585 52.5627 124.319 52.616C124.063 52.6693 123.812 52.7547 123.567 52.872C123.332 52.9787 123.119 53.1227 122.927 53.304C122.735 53.4747 122.585 53.688 122.479 53.944H122.447V49.576H121.087ZM130.969 56.872C130.969 56.3707 131.033 55.928 131.161 55.544C131.3 55.1493 131.486 54.8187 131.721 54.552C131.956 54.2853 132.228 54.0827 132.537 53.944C132.857 53.8053 133.193 53.736 133.545 53.736C133.897 53.736 134.228 53.8053 134.537 53.944C134.857 54.0827 135.134 54.2853 135.369 54.552C135.604 54.8187 135.785 55.1493 135.913 55.544C136.052 55.928 136.121 56.3707 136.121 56.872C136.121 57.3733 136.052 57.8213 135.913 58.216C135.785 58.6 135.604 58.9253 135.369 59.192C135.134 59.448 134.857 59.6453 134.537 59.784C134.228 59.9227 133.897 59.992 133.545 59.992C133.193 59.992 132.857 59.9227 132.537 59.784C132.228 59.6453 131.956 59.448 131.721 59.192C131.486 58.9253 131.3 58.6 131.161 58.216C131.033 57.8213 130.969 57.3733 130.969 56.872ZM129.529 56.872C129.529 57.48 129.614 58.0453 129.785 58.568C129.956 59.0907 130.212 59.5493 130.553 59.944C130.894 60.328 131.316 60.632 131.817 60.856C132.318 61.0693 132.894 61.176 133.545 61.176C134.206 61.176 134.782 61.0693 135.273 60.856C135.774 60.632 136.196 60.328 136.537 59.944C136.878 59.5493 137.134 59.0907 137.305 58.568C137.476 58.0453 137.561 57.48 137.561 56.872C137.561 56.264 137.476 55.6987 137.305 55.176C137.134 54.6427 136.878 54.184 136.537 53.8C136.196 53.4053 135.774 53.096 135.273 52.872C134.782 52.648 134.206 52.536 133.545 52.536C132.894 52.536 132.318 52.648 131.817 52.872C131.316 53.096 130.894 53.4053 130.553 53.8C130.212 54.184 129.956 54.6427 129.785 55.176C129.614 55.6987 129.529 56.264 129.529 56.872ZM141.053 52.728V50.248H139.693V52.728H138.285V53.928H139.693V59.192C139.693 59.576 139.73 59.8853 139.805 60.12C139.879 60.3547 139.991 60.536 140.141 60.664C140.301 60.792 140.503 60.8827 140.749 60.936C141.005 60.9787 141.309 61 141.661 61H142.701V59.8H142.077C141.863 59.8 141.687 59.7947 141.549 59.784C141.421 59.7627 141.319 59.7253 141.245 59.672C141.17 59.6187 141.117 59.544 141.085 59.448C141.063 59.352 141.053 59.224 141.053 59.064V53.928H142.701V52.728H141.053ZM144.212 52.728V61H145.572V55.848C145.572 55.688 145.609 55.4907 145.684 55.256C145.769 55.0107 145.897 54.776 146.068 54.552C146.249 54.328 146.478 54.136 146.756 53.976C147.044 53.816 147.385 53.736 147.78 53.736C148.089 53.736 148.34 53.784 148.532 53.88C148.734 53.9653 148.894 54.0933 149.012 54.264C149.129 54.424 149.209 54.616 149.252 54.84C149.305 55.064 149.332 55.3093 149.332 55.576V61H150.692V55.848C150.692 55.208 150.884 54.696 151.267 54.312C151.652 53.928 152.18 53.736 152.852 53.736C153.182 53.736 153.449 53.784 153.652 53.88C153.865 53.976 154.03 54.1093 154.148 54.28C154.265 54.44 154.345 54.632 154.388 54.856C154.43 55.08 154.452 55.32 154.452 55.576V61H155.812V54.936C155.812 54.5093 155.742 54.1467 155.604 53.848C155.476 53.5387 155.289 53.288 155.044 53.096C154.809 52.904 154.521 52.7653 154.18 52.68C153.849 52.584 153.476 52.536 153.06 52.536C152.516 52.536 152.014 52.6587 151.556 52.904C151.108 53.1493 150.745 53.496 150.468 53.944C150.297 53.432 150.004 53.0693 149.588 52.856C149.172 52.6427 148.708 52.536 148.196 52.536C147.033 52.536 146.142 53.0053 145.524 53.944H145.492V52.728H144.212ZM165.18 60.968C164.945 61.1067 164.62 61.176 164.204 61.176C163.852 61.176 163.569 61.08 163.356 60.888C163.153 60.6853 163.052 60.36 163.052 59.912C162.679 60.36 162.241 60.6853 161.74 60.888C161.249 61.08 160.716 61.176 160.14 61.176C159.767 61.176 159.409 61.1333 159.068 61.048C158.737 60.9627 158.449 60.8293 158.204 60.648C157.959 60.4667 157.761 60.232 157.612 59.944C157.473 59.6453 157.404 59.288 157.404 58.872C157.404 58.4027 157.484 58.0187 157.644 57.72C157.804 57.4213 158.012 57.1813 158.268 57C158.535 56.808 158.833 56.664 159.164 56.568C159.505 56.472 159.852 56.392 160.204 56.328C160.577 56.2533 160.929 56.2 161.26 56.168C161.601 56.1253 161.9 56.072 162.156 56.008C162.412 55.9333 162.615 55.832 162.764 55.704C162.913 55.5653 162.988 55.368 162.988 55.112C162.988 54.8133 162.929 54.5733 162.812 54.392C162.705 54.2107 162.561 54.072 162.38 53.976C162.209 53.88 162.012 53.816 161.788 53.784C161.575 53.752 161.361 53.736 161.148 53.736C160.572 53.736 160.092 53.848 159.708 54.072C159.324 54.2853 159.116 54.696 159.084 55.304H157.724C157.745 54.792 157.852 54.36 158.044 54.008C158.236 53.656 158.492 53.3733 158.812 53.16C159.132 52.936 159.495 52.776 159.9 52.68C160.316 52.584 160.759 52.536 161.228 52.536C161.601 52.536 161.969 52.5627 162.332 52.616C162.705 52.6693 163.041 52.7813 163.34 52.952C163.639 53.112 163.879 53.3413 164.06 53.64C164.241 53.9387 164.332 54.328 164.332 54.808V59.064C164.332 59.384 164.348 59.6187 164.38 59.768C164.423 59.9173 164.551 59.992 164.764 59.992C164.881 59.992 165.02 59.9653 165.18 59.912V60.968ZM162.972 56.728C162.801 56.856 162.577 56.952 162.3 57.016C162.023 57.0693 161.729 57.1173 161.42 57.16C161.121 57.192 160.817 57.2347 160.508 57.288C160.199 57.3307 159.921 57.4053 159.676 57.512C159.431 57.6187 159.228 57.7733 159.068 57.976C158.919 58.168 158.844 58.4347 158.844 58.776C158.844 59 158.887 59.192 158.972 59.352C159.068 59.5013 159.185 59.624 159.324 59.72C159.473 59.816 159.644 59.8853 159.836 59.928C160.028 59.9707 160.231 59.992 160.444 59.992C160.892 59.992 161.276 59.9333 161.596 59.816C161.916 59.688 162.177 59.5333 162.38 59.352C162.583 59.16 162.732 58.9573 162.828 58.744C162.924 58.52 162.972 58.312 162.972 58.12V56.728ZM167.886 51.24V49.576H166.526V51.24H167.886ZM166.526 52.728V61H167.886V52.728H166.526ZM170.073 49.576V61H171.433V49.576H170.073ZM173.844 59.224V61H175.62V59.224H173.844ZM183.609 55.384H185.017C184.963 54.8933 184.835 54.472 184.633 54.12C184.43 53.7573 184.169 53.4587 183.849 53.224C183.539 52.9893 183.177 52.8187 182.761 52.712C182.355 52.5947 181.918 52.536 181.449 52.536C180.798 52.536 180.227 52.6533 179.737 52.888C179.246 53.112 178.835 53.4267 178.505 53.832C178.185 54.2267 177.945 54.696 177.785 55.24C177.625 55.7733 177.545 56.3493 177.545 56.968C177.545 57.5867 177.625 58.1573 177.785 58.68C177.955 59.192 178.201 59.6347 178.521 60.008C178.851 60.3813 179.257 60.6693 179.737 60.872C180.227 61.0747 180.787 61.176 181.417 61.176C182.473 61.176 183.305 60.8987 183.913 60.344C184.531 59.7893 184.915 59 185.065 57.976H183.673C183.587 58.616 183.353 59.112 182.969 59.464C182.595 59.816 182.073 59.992 181.401 59.992C180.974 59.992 180.606 59.9067 180.297 59.736C179.987 59.5653 179.737 59.3413 179.545 59.064C179.353 58.776 179.209 58.4507 179.113 58.088C179.027 57.7253 178.985 57.352 178.985 56.968C178.985 56.552 179.027 56.152 179.113 55.768C179.198 55.3733 179.337 55.0267 179.529 54.728C179.731 54.4293 179.998 54.1893 180.329 54.008C180.659 53.8267 181.07 53.736 181.561 53.736C182.137 53.736 182.595 53.88 182.937 54.168C183.278 54.456 183.502 54.8613 183.609 55.384ZM187.579 56.872C187.579 56.3707 187.643 55.928 187.771 55.544C187.909 55.1493 188.096 54.8187 188.331 54.552C188.565 54.2853 188.837 54.0827 189.147 53.944C189.467 53.8053 189.803 53.736 190.155 53.736C190.507 53.736 190.837 53.8053 191.147 53.944C191.467 54.0827 191.744 54.2853 191.979 54.552C192.213 54.8187 192.395 55.1493 192.523 55.544C192.661 55.928 192.731 56.3707 192.731 56.872C192.731 57.3733 192.661 57.8213 192.523 58.216C192.395 58.6 192.213 58.9253 191.979 59.192C191.744 59.448 191.467 59.6453 191.147 59.784C190.837 59.9227 190.507 59.992 190.155 59.992C189.803 59.992 189.467 59.9227 189.147 59.784C188.837 59.6453 188.565 59.448 188.331 59.192C188.096 58.9253 187.909 58.6 187.771 58.216C187.643 57.8213 187.579 57.3733 187.579 56.872ZM186.139 56.872C186.139 57.48 186.224 58.0453 186.395 58.568C186.565 59.0907 186.821 59.5493 187.163 59.944C187.504 60.328 187.925 60.632 188.427 60.856C188.928 61.0693 189.504 61.176 190.155 61.176C190.816 61.176 191.392 61.0693 191.883 60.856C192.384 60.632 192.805 60.328 193.147 59.944C193.488 59.5493 193.744 59.0907 193.915 58.568C194.085 58.0453 194.171 57.48 194.171 56.872C194.171 56.264 194.085 55.6987 193.915 55.176C193.744 54.6427 193.488 54.184 193.147 53.8C192.805 53.4053 192.384 53.096 191.883 52.872C191.392 52.648 190.816 52.536 190.155 52.536C189.504 52.536 188.928 52.648 188.427 52.872C187.925 53.096 187.504 53.4053 187.163 53.8C186.821 54.184 186.565 54.6427 186.395 55.176C186.224 55.6987 186.139 56.264 186.139 56.872ZM195.774 52.728V61H197.134V55.848C197.134 55.688 197.171 55.4907 197.246 55.256C197.331 55.0107 197.459 54.776 197.63 54.552C197.811 54.328 198.041 54.136 198.318 53.976C198.606 53.816 198.947 53.736 199.342 53.736C199.651 53.736 199.902 53.784 200.094 53.88C200.297 53.9653 200.457 54.0933 200.574 54.264C200.691 54.424 200.771 54.616 200.814 54.84C200.867 55.064 200.894 55.3093 200.894 55.576V61H202.254V55.848C202.254 55.208 202.446 54.696 202.83 54.312C203.214 53.928 203.742 53.736 204.414 53.736C204.745 53.736 205.011 53.784 205.214 53.88C205.427 53.976 205.593 54.1093 205.71 54.28C205.827 54.44 205.907 54.632 205.95 54.856C205.993 55.08 206.014 55.32 206.014 55.576V61H207.374V54.936C207.374 54.5093 207.305 54.1467 207.166 53.848C207.038 53.5387 206.851 53.288 206.606 53.096C206.371 52.904 206.083 52.7653 205.742 52.68C205.411 52.584 205.038 52.536 204.622 52.536C204.078 52.536 203.577 52.6587 203.118 52.904C202.67 53.1493 202.307 53.496 202.03 53.944C201.859 53.432 201.566 53.0693 201.15 52.856C200.734 52.6427 200.27 52.536 199.758 52.536C198.595 52.536 197.705 53.0053 197.086 53.944H197.054V52.728H195.774Z" fill="white"/>
<path d="M6.344 98.408V94.904H5.256V98.408H1.768V99.496H5.256V103H6.344V99.496H9.832V98.408H6.344ZM16.0178 99.144H12.2098L15.9858 93.592H16.0178V99.144ZM17.2978 99.144V91.656H16.2098L11.0418 99.032V100.344H16.0178V103H17.2978V100.344H18.8338V99.144H17.2978ZM26.1084 94.552H27.4684C27.383 93.6133 27.063 92.8987 26.5084 92.408C25.9537 91.9067 25.207 91.656 24.2684 91.656C23.4577 91.656 22.7857 91.8267 22.2524 92.168C21.719 92.5093 21.2924 92.9627 20.9724 93.528C20.6524 94.0933 20.423 94.744 20.2844 95.48C20.1564 96.2053 20.0924 96.9573 20.0924 97.736C20.0924 98.3333 20.135 98.952 20.2204 99.592C20.3164 100.232 20.503 100.819 20.7804 101.352C21.0577 101.885 21.4524 102.323 21.9644 102.664C22.4764 103.005 23.1537 103.176 23.9964 103.176C24.711 103.176 25.3084 103.059 25.7884 102.824C26.279 102.579 26.6684 102.275 26.9564 101.912C27.255 101.539 27.4684 101.128 27.5964 100.68C27.7244 100.232 27.7884 99.8 27.7884 99.384C27.7884 98.8613 27.7084 98.376 27.5484 97.928C27.3884 97.48 27.159 97.0907 26.8604 96.76C26.5724 96.4293 26.2097 96.1733 25.7724 95.992C25.3457 95.8 24.8604 95.704 24.3164 95.704C23.6977 95.704 23.1484 95.8213 22.6684 96.056C22.199 96.2907 21.8044 96.6693 21.4844 97.192L21.4524 97.16C21.463 96.7227 21.5057 96.2533 21.5804 95.752C21.655 95.2507 21.7884 94.7867 21.9804 94.36C22.183 93.9227 22.4604 93.5653 22.8124 93.288C23.1644 93 23.6284 92.856 24.2044 92.856C24.7484 92.856 25.1857 93.0107 25.5164 93.32C25.847 93.6293 26.0444 94.04 26.1084 94.552ZM24.0604 96.904C24.4444 96.904 24.7804 96.9733 25.0684 97.112C25.3564 97.2507 25.5964 97.4373 25.7884 97.672C25.9804 97.896 26.119 98.168 26.2044 98.488C26.3004 98.7973 26.3484 99.128 26.3484 99.48C26.3484 99.8107 26.295 100.131 26.1884 100.44C26.0924 100.739 25.9484 101.005 25.7564 101.24C25.5644 101.475 25.3244 101.661 25.0364 101.8C24.759 101.928 24.4337 101.992 24.0604 101.992C23.687 101.992 23.351 101.928 23.0524 101.8C22.7644 101.661 22.519 101.48 22.3164 101.256C22.1244 101.032 21.975 100.765 21.8684 100.456C21.7617 100.147 21.7084 99.816 21.7084 99.464C21.7084 99.112 21.7564 98.7813 21.8524 98.472C21.959 98.152 22.1137 97.88 22.3164 97.656C22.519 97.4213 22.7644 97.24 23.0524 97.112C23.3404 96.9733 23.6764 96.904 24.0604 96.904ZM40.9721 93.016V91.848H33.6281V93.128H39.5801C38.9828 93.7573 38.4228 94.4453 37.9001 95.192C37.3881 95.9387 36.9348 96.7333 36.5401 97.576C36.1455 98.408 35.8201 99.2827 35.5641 100.2C35.3188 101.107 35.1641 102.04 35.1001 103H36.6201C36.6735 102.115 36.8228 101.203 37.0681 100.264C37.3135 99.3253 37.6281 98.4133 38.0121 97.528C38.4068 96.6427 38.8548 95.8107 39.3561 95.032C39.8575 94.2533 40.3961 93.5813 40.9721 93.016ZM43.8307 97.416C43.8307 97.1387 43.8307 96.8347 43.8307 96.504C43.8414 96.1627 43.8681 95.8267 43.9108 95.496C43.9641 95.1547 44.0334 94.824 44.1188 94.504C44.2148 94.184 44.3481 93.9067 44.5188 93.672C44.7001 93.4267 44.9241 93.2293 45.1908 93.08C45.4574 92.9307 45.7828 92.856 46.1668 92.856C46.5508 92.856 46.8761 92.9307 47.1428 93.08C47.4094 93.2293 47.6281 93.4267 47.7988 93.672C47.9801 93.9067 48.1134 94.184 48.1988 94.504C48.2948 94.824 48.3641 95.1547 48.4068 95.496C48.4601 95.8267 48.4868 96.1627 48.4868 96.504C48.4974 96.8347 48.5028 97.1387 48.5028 97.416C48.5028 97.8427 48.4868 98.3227 48.4548 98.856C48.4334 99.3787 48.3481 99.8747 48.1988 100.344C48.0601 100.803 47.8308 101.192 47.5108 101.512C47.1908 101.832 46.7428 101.992 46.1668 101.992C45.5908 101.992 45.1428 101.832 44.8228 101.512C44.5028 101.192 44.2681 100.803 44.1188 100.344C43.9801 99.8747 43.8948 99.3787 43.8628 98.856C43.8414 98.3227 43.8307 97.8427 43.8307 97.416ZM42.3908 97.432C42.3908 97.848 42.4014 98.28 42.4228 98.728C42.4441 99.176 42.4974 99.6133 42.5828 100.04C42.6681 100.467 42.7908 100.872 42.9508 101.256C43.1108 101.629 43.3294 101.96 43.6068 102.248C43.8841 102.536 44.2308 102.765 44.6468 102.936C45.0734 103.096 45.5801 103.176 46.1668 103.176C46.7641 103.176 47.2708 103.096 47.6868 102.936C48.1028 102.765 48.4494 102.536 48.7268 102.248C49.0041 101.96 49.2228 101.629 49.3828 101.256C49.5428 100.872 49.6654 100.467 49.7508 100.04C49.8361 99.6133 49.8894 99.176 49.9108 98.728C49.9321 98.28 49.9427 97.848 49.9427 97.432C49.9427 97.016 49.9321 96.584 49.9108 96.136C49.8894 95.688 49.8361 95.2507 49.7508 94.824C49.6654 94.3973 49.5428 93.992 49.3828 93.608C49.2228 93.224 49.0041 92.888 48.7268 92.6C48.4494 92.312 48.0974 92.0827 47.6708 91.912C47.2548 91.7413 46.7534 91.656 46.1668 91.656C45.5801 91.656 45.0734 91.7413 44.6468 91.912C44.2308 92.0827 43.8841 92.312 43.6068 92.6C43.3294 92.888 43.1108 93.224 42.9508 93.608C42.7908 93.992 42.6681 94.3973 42.5828 94.824C42.4974 95.2507 42.4441 95.688 42.4228 96.136C42.4014 96.584 42.3908 97.016 42.3908 97.432ZM57.1745 97.416C57.1745 97.1387 57.1745 96.8347 57.1745 96.504C57.1852 96.1627 57.2118 95.8267 57.2545 95.496C57.3078 95.1547 57.3772 94.824 57.4625 94.504C57.5585 94.184 57.6918 93.9067 57.8625 93.672C58.0438 93.4267 58.2678 93.2293 58.5345 93.08C58.8012 92.9307 59.1265 92.856 59.5105 92.856C59.8945 92.856 60.2198 92.9307 60.4865 93.08C60.7532 93.2293 60.9718 93.4267 61.1425 93.672C61.3238 93.9067 61.4572 94.184 61.5425 94.504C61.6385 94.824 61.7078 95.1547 61.7505 95.496C61.8038 95.8267 61.8305 96.1627 61.8305 96.504C61.8412 96.8347 61.8465 97.1387 61.8465 97.416C61.8465 97.8427 61.8305 98.3227 61.7985 98.856C61.7772 99.3787 61.6918 99.8747 61.5425 100.344C61.4038 100.803 61.1745 101.192 60.8545 101.512C60.5345 101.832 60.0865 101.992 59.5105 101.992C58.9345 101.992 58.4865 101.832 58.1665 101.512C57.8465 101.192 57.6118 100.803 57.4625 100.344C57.3238 99.8747 57.2385 99.3787 57.2065 98.856C57.1852 98.3227 57.1745 97.8427 57.1745 97.416ZM55.7345 97.432C55.7345 97.848 55.7452 98.28 55.7665 98.728C55.7878 99.176 55.8412 99.6133 55.9265 100.04C56.0118 100.467 56.1345 100.872 56.2945 101.256C56.4545 101.629 56.6732 101.96 56.9505 102.248C57.2278 102.536 57.5745 102.765 57.9905 102.936C58.4172 103.096 58.9238 103.176 59.5105 103.176C60.1078 103.176 60.6145 103.096 61.0305 102.936C61.4465 102.765 61.7932 102.536 62.0705 102.248C62.3478 101.96 62.5665 101.629 62.7265 101.256C62.8865 100.872 63.0092 100.467 63.0945 100.04C63.1798 99.6133 63.2332 99.176 63.2545 98.728C63.2758 98.28 63.2865 97.848 63.2865 97.432C63.2865 97.016 63.2758 96.584 63.2545 96.136C63.2332 95.688 63.1798 95.2507 63.0945 94.824C63.0092 94.3973 62.8865 93.992 62.7265 93.608C62.5665 93.224 62.3478 92.888 62.0705 92.6C61.7932 92.312 61.4412 92.0827 61.0145 91.912C60.5985 91.7413 60.0972 91.656 59.5105 91.656C58.9238 91.656 58.4172 91.7413 57.9905 91.912C57.5745 92.0827 57.2278 92.312 56.9505 92.6C56.6732 92.888 56.4545 93.224 56.2945 93.608C56.1345 93.992 56.0118 94.3973 55.9265 94.824C55.8412 95.2507 55.7878 95.688 55.7665 96.136C55.7452 96.584 55.7345 97.016 55.7345 97.432ZM66.0971 100.264H64.7371C64.8225 101.245 65.1798 101.976 65.8091 102.456C66.4385 102.936 67.2278 103.176 68.1771 103.176C69.5531 103.176 70.5505 102.653 71.1691 101.608C71.7985 100.552 72.1131 99.0427 72.1131 97.08C72.1131 96.0027 72.0065 95.1173 71.7931 94.424C71.5905 93.72 71.3131 93.1653 70.9611 92.76C70.6091 92.3547 70.1985 92.072 69.7291 91.912C69.2598 91.7413 68.7585 91.656 68.2251 91.656C67.6811 91.656 67.1798 91.7467 66.7211 91.928C66.2625 92.1093 65.8678 92.3653 65.5371 92.696C65.2065 93.016 64.9505 93.4053 64.7691 93.864C64.5878 94.312 64.4971 94.808 64.4971 95.352C64.4971 95.9067 64.5718 96.4187 64.7211 96.888C64.8811 97.3573 65.1105 97.7573 65.4091 98.088C65.7185 98.4187 66.0971 98.68 66.5451 98.872C66.9931 99.0533 67.5051 99.144 68.0811 99.144C68.6358 99.144 69.1478 99.0053 69.6171 98.728C70.0865 98.44 70.4491 98.056 70.7051 97.576L70.7371 97.608C70.6945 99.0907 70.4651 100.195 70.0491 100.92C69.6331 101.635 69.0091 101.992 68.1771 101.992C67.6331 101.992 67.1638 101.843 66.7691 101.544C66.3745 101.245 66.1505 100.819 66.0971 100.264ZM70.4971 95.448C70.4971 95.7787 70.4438 96.0987 70.3371 96.408C70.2305 96.7067 70.0758 96.9733 69.8731 97.208C69.6705 97.432 69.4251 97.6133 69.1371 97.752C68.8491 97.88 68.5291 97.944 68.1771 97.944C67.8465 97.944 67.5425 97.88 67.2651 97.752C66.9985 97.6133 66.7638 97.432 66.5611 97.208C66.3691 96.984 66.2145 96.728 66.0971 96.44C65.9905 96.152 65.9371 95.8533 65.9371 95.544C65.9371 95.192 65.9745 94.856 66.0491 94.536C66.1345 94.216 66.2625 93.9333 66.4331 93.688C66.6145 93.432 66.8438 93.2293 67.1211 93.08C67.4091 92.9307 67.7558 92.856 68.1611 92.856C68.5451 92.856 68.8811 92.9253 69.1691 93.064C69.4571 93.2027 69.6971 93.3947 69.8891 93.64C70.0918 93.8747 70.2411 94.1467 70.3371 94.456C70.4438 94.7653 70.4971 95.096 70.4971 95.448ZM74.9557 97.416C74.9557 97.1387 74.9557 96.8347 74.9557 96.504C74.9664 96.1627 74.9931 95.8267 75.0358 95.496C75.0891 95.1547 75.1584 94.824 75.2438 94.504C75.3398 94.184 75.4731 93.9067 75.6438 93.672C75.8251 93.4267 76.0491 93.2293 76.3158 93.08C76.5824 92.9307 76.9078 92.856 77.2918 92.856C77.6758 92.856 78.0011 92.9307 78.2678 93.08C78.5344 93.2293 78.7531 93.4267 78.9238 93.672C79.1051 93.9067 79.2384 94.184 79.3238 94.504C79.4198 94.824 79.4891 95.1547 79.5318 95.496C79.5851 95.8267 79.6118 96.1627 79.6118 96.504C79.6224 96.8347 79.6278 97.1387 79.6278 97.416C79.6278 97.8427 79.6118 98.3227 79.5798 98.856C79.5584 99.3787 79.4731 99.8747 79.3238 100.344C79.1851 100.803 78.9558 101.192 78.6358 101.512C78.3158 101.832 77.8678 101.992 77.2918 101.992C76.7158 101.992 76.2678 101.832 75.9478 101.512C75.6278 101.192 75.3931 100.803 75.2438 100.344C75.1051 99.8747 75.0198 99.3787 74.9878 98.856C74.9664 98.3227 74.9557 97.8427 74.9557 97.416ZM73.5158 97.432C73.5158 97.848 73.5264 98.28 73.5478 98.728C73.5691 99.176 73.6224 99.6133 73.7078 100.04C73.7931 100.467 73.9158 100.872 74.0758 101.256C74.2358 101.629 74.4544 101.96 74.7318 102.248C75.0091 102.536 75.3558 102.765 75.7718 102.936C76.1984 103.096 76.7051 103.176 77.2918 103.176C77.8891 103.176 78.3958 103.096 78.8118 102.936C79.2278 102.765 79.5744 102.536 79.8518 102.248C80.1291 101.96 80.3478 101.629 80.5078 101.256C80.6678 100.872 80.7904 100.467 80.8758 100.04C80.9611 99.6133 81.0144 99.176 81.0358 98.728C81.0571 98.28 81.0677 97.848 81.0677 97.432C81.0677 97.016 81.0571 96.584 81.0358 96.136C81.0144 95.688 80.9611 95.2507 80.8758 94.824C80.7904 94.3973 80.6678 93.992 80.5078 93.608C80.3478 93.224 80.1291 92.888 79.8518 92.6C79.5744 92.312 79.2224 92.0827 78.7958 91.912C78.3798 91.7413 77.8784 91.656 77.2918 91.656C76.7051 91.656 76.1984 91.7413 75.7718 91.912C75.3558 92.0827 75.0091 92.312 74.7318 92.6C74.4544 92.888 74.2358 93.224 74.0758 93.608C73.9158 93.992 73.7931 94.3973 73.7078 94.824C73.6224 95.2507 73.5691 95.688 73.5478 96.136C73.5264 96.584 73.5158 97.016 73.5158 97.432ZM86.8915 95.672H88.2515C88.2408 95.3307 88.2728 94.9947 88.3475 94.664C88.4328 94.3227 88.5662 94.0187 88.7475 93.752C88.9288 93.4853 89.1582 93.272 89.4355 93.112C89.7235 92.9413 90.0648 92.856 90.4595 92.856C90.7582 92.856 91.0408 92.904 91.3075 93C91.5742 93.096 91.8035 93.2347 91.9955 93.416C92.1982 93.5973 92.3582 93.816 92.4755 94.072C92.5928 94.3173 92.6515 94.5947 92.6515 94.904C92.6515 95.2987 92.5875 95.6453 92.4595 95.944C92.3422 96.2427 92.1608 96.52 91.9155 96.776C91.6808 97.032 91.3822 97.288 91.0195 97.544C90.6568 97.7893 90.2355 98.0613 89.7555 98.36C89.3608 98.5947 88.9822 98.8453 88.6195 99.112C88.2568 99.3787 87.9315 99.688 87.6435 100.04C87.3555 100.392 87.1155 100.808 86.9235 101.288C86.7422 101.757 86.6248 102.328 86.5715 103H93.9795V101.8H88.1555C88.2195 101.448 88.3528 101.139 88.5555 100.872C88.7688 100.595 89.0195 100.339 89.3075 100.104C89.6062 99.8693 89.9315 99.6507 90.2835 99.448C90.6355 99.2347 90.9875 99.0213 91.3395 98.808C91.6915 98.584 92.0328 98.3493 92.3635 98.104C92.6942 97.8587 92.9875 97.5867 93.2435 97.288C93.4995 96.9787 93.7022 96.632 93.8515 96.248C94.0115 95.864 94.0915 95.4213 94.0915 94.92C94.0915 94.3867 93.9955 93.9173 93.8035 93.512C93.6222 93.1067 93.3715 92.7707 93.0515 92.504C92.7315 92.2267 92.3528 92.0187 91.9155 91.88C91.4888 91.7307 91.0302 91.656 90.5395 91.656C89.9422 91.656 89.4088 91.7573 88.9395 91.96C88.4702 92.1627 88.0755 92.4453 87.7555 92.808C87.4462 93.16 87.2168 93.5813 87.0675 94.072C86.9182 94.5627 86.8595 95.096 86.8915 95.672ZM103.222 93.016V91.848H95.8781V93.128H101.83C101.233 93.7573 100.673 94.4453 100.15 95.192C99.6381 95.9387 99.1848 96.7333 98.7901 97.576C98.3955 98.408 98.0701 99.2827 97.8141 100.2C97.5688 101.107 97.4141 102.04 97.3501 103H98.8701C98.9235 102.115 99.0728 101.203 99.3181 100.264C99.5635 99.3253 99.8781 98.4133 100.262 97.528C100.657 96.6427 101.105 95.8107 101.606 95.032C102.107 94.2533 102.646 93.5813 103.222 93.016ZM110.902 94.6C110.902 94.312 110.955 94.0613 111.062 93.848C111.169 93.6347 111.307 93.4533 111.478 93.304C111.659 93.1547 111.873 93.0427 112.118 92.968C112.363 92.8933 112.619 92.856 112.886 92.856C113.441 92.856 113.894 93.0053 114.246 93.304C114.609 93.592 114.79 94.024 114.79 94.6C114.79 95.176 114.614 95.624 114.262 95.944C113.91 96.264 113.462 96.424 112.918 96.424C112.641 96.424 112.379 96.3867 112.134 96.312C111.889 96.2373 111.675 96.1253 111.494 95.976C111.313 95.8267 111.169 95.64 111.062 95.416C110.955 95.1813 110.902 94.9093 110.902 94.6ZM109.462 94.552C109.462 95.064 109.606 95.5387 109.894 95.976C110.182 96.4027 110.566 96.712 111.046 96.904C110.406 97.128 109.915 97.4907 109.574 97.992C109.233 98.4827 109.062 99.064 109.062 99.736C109.062 100.312 109.158 100.819 109.35 101.256C109.553 101.683 109.825 102.04 110.166 102.328C110.518 102.616 110.929 102.829 111.398 102.968C111.867 103.107 112.374 103.176 112.918 103.176C113.441 103.176 113.931 103.101 114.39 102.952C114.849 102.803 115.243 102.584 115.574 102.296C115.915 101.997 116.182 101.635 116.374 101.208C116.577 100.781 116.678 100.291 116.678 99.736C116.678 99.032 116.513 98.44 116.182 97.96C115.851 97.4693 115.345 97.1173 114.662 96.904C115.142 96.6907 115.521 96.376 115.798 95.96C116.086 95.5333 116.23 95.064 116.23 94.552C116.23 94.1893 116.166 93.8373 116.038 93.496C115.91 93.144 115.707 92.8347 115.43 92.568C115.163 92.2907 114.811 92.072 114.374 91.912C113.937 91.7413 113.409 91.656 112.79 91.656C112.353 91.656 111.931 91.72 111.526 91.848C111.131 91.976 110.779 92.1627 110.47 92.408C110.161 92.6533 109.915 92.9573 109.734 93.32C109.553 93.672 109.462 94.0827 109.462 94.552ZM110.502 99.8C110.502 99.4693 110.561 99.1707 110.678 98.904C110.806 98.6373 110.977 98.408 111.19 98.216C111.414 98.024 111.67 97.88 111.958 97.784C112.257 97.6773 112.571 97.624 112.902 97.624C113.222 97.624 113.521 97.6827 113.798 97.8C114.086 97.9067 114.337 98.056 114.55 98.248C114.763 98.44 114.929 98.6693 115.046 98.936C115.174 99.192 115.238 99.4747 115.238 99.784C115.238 100.104 115.179 100.397 115.062 100.664C114.955 100.931 114.795 101.165 114.582 101.368C114.379 101.56 114.134 101.715 113.846 101.832C113.569 101.939 113.259 101.992 112.918 101.992C112.214 101.992 111.633 101.8 111.174 101.416C110.726 101.021 110.502 100.483 110.502 99.8ZM119.457 100.264H118.097C118.182 101.245 118.539 101.976 119.169 102.456C119.798 102.936 120.587 103.176 121.536 103.176C122.913 103.176 123.91 102.653 124.529 101.608C125.158 100.552 125.473 99.0427 125.473 97.08C125.473 96.0027 125.366 95.1173 125.153 94.424C124.95 93.72 124.673 93.1653 124.321 92.76C123.969 92.3547 123.558 92.072 123.089 91.912C122.619 91.7413 122.118 91.656 121.585 91.656C121.041 91.656 120.539 91.7467 120.081 91.928C119.622 92.1093 119.227 92.3653 118.897 92.696C118.566 93.016 118.31 93.4053 118.129 93.864C117.947 94.312 117.857 94.808 117.857 95.352C117.857 95.9067 117.931 96.4187 118.081 96.888C118.241 97.3573 118.47 97.7573 118.769 98.088C119.078 98.4187 119.457 98.68 119.905 98.872C120.353 99.0533 120.865 99.144 121.441 99.144C121.995 99.144 122.507 99.0053 122.977 98.728C123.446 98.44 123.809 98.056 124.065 97.576L124.097 97.608C124.054 99.0907 123.825 100.195 123.409 100.92C122.993 101.635 122.369 101.992 121.536 101.992C120.993 101.992 120.523 101.843 120.129 101.544C119.734 101.245 119.51 100.819 119.457 100.264ZM123.857 95.448C123.857 95.7787 123.803 96.0987 123.697 96.408C123.59 96.7067 123.435 96.9733 123.233 97.208C123.03 97.432 122.785 97.6133 122.497 97.752C122.209 97.88 121.889 97.944 121.536 97.944C121.206 97.944 120.902 97.88 120.625 97.752C120.358 97.6133 120.123 97.432 119.921 97.208C119.729 96.984 119.574 96.728 119.457 96.44C119.35 96.152 119.297 95.8533 119.297 95.544C119.297 95.192 119.334 94.856 119.409 94.536C119.494 94.216 119.622 93.9333 119.793 93.688C119.974 93.432 120.203 93.2293 120.481 93.08C120.769 92.9307 121.115 92.856 121.521 92.856C121.905 92.856 122.241 92.9253 122.529 93.064C122.817 93.2027 123.057 93.3947 123.249 93.64C123.451 93.8747 123.601 94.1467 123.697 94.456C123.803 94.7653 123.857 95.096 123.857 95.448Z" fill="white"/>
</svg>
