<svg width="32" height="32" viewBox="0 0 32 32" fill="none" xmlns="http://www.w3.org/2000/svg">
<circle cx="16" cy="16" r="16" fill="white"/>
<g clip-path="url(#clip0_2361_210)">
<path d="M13.7948 21.391H11.7806V14.888H13.7948V21.391ZM13.9957 12.8161C13.9957 12.165 13.4675 11.6365 12.8167 11.6365C12.1634 11.6365 11.6365 12.165 11.6365 12.8161C11.6365 13.4675 12.1634 13.996 12.8167 13.996C13.4675 13.996 13.9957 13.4675 13.9957 12.8161ZM21.3334 17.8133C21.3334 16.0676 20.9647 14.7729 18.9254 14.7729C17.9455 14.7729 17.2877 15.2629 17.0192 15.7726H17.0173V14.888H15.0606V21.391H17.0173V18.1622C17.0173 17.3166 17.2325 16.4974 18.2807 16.4974C19.3145 16.4974 19.348 17.4644 19.348 18.2159V21.391H21.3334V17.8133Z" fill="#473262"/>
</g>
<defs>
<clipPath id="clip0_2361_210">
<rect width="9.69697" height="9.69697" fill="white" transform="translate(11.6365 11.6365)"/>
</clipPath>
</defs>
</svg>
