<svg width="216" height="48" viewBox="0 0 216 48" fill="none" xmlns="http://www.w3.org/2000/svg">
<g clip-path="url(#clip0_2449_56)">
<path d="M19.9677 25.2415C19.8141 25.3439 19.4941 25.4719 19.0077 25.6255C18.5469 25.7535 17.7533 25.8815 16.6269 26.0095C16.2941 26.0351 15.8205 26.0607 15.2061 26.0863C14.5917 26.1119 13.9261 26.1375 13.2093 26.1631C12.5181 26.1887 11.8781 26.2015 11.2893 26.2015C10.7261 26.1759 10.3293 26.1375 10.0989 26.0863C10.0989 26.0863 10.0349 26.1503 9.90693 26.2783C9.80453 26.4063 9.75333 26.5727 9.75333 26.7775C9.57413 27.0847 9.35653 27.5455 9.10053 28.1599C8.84453 28.7487 8.56293 29.4015 8.25573 30.1183C7.97413 30.8351 7.70533 31.5519 7.44933 32.2687C7.19333 32.9599 6.97573 33.5743 6.79653 34.1119C6.64293 34.6239 6.56613 34.9823 6.56613 35.1871C6.33573 35.8015 6.19493 36.3263 6.14373 36.7615C6.09253 37.1967 6.00293 37.4527 5.87493 37.5295C5.79813 37.9135 5.55493 38.1055 5.14533 38.1055C4.76133 38.1055 4.46693 37.9903 4.26213 37.7599C3.69893 37.4783 3.31493 37.1199 3.11013 36.6847C2.90533 36.2239 2.89253 35.7119 3.07173 35.1487C3.14853 34.8159 3.27653 34.3295 3.45573 33.6895C3.66053 33.0239 3.87813 32.2943 4.10853 31.5007C4.36453 30.7071 4.62053 29.9391 4.87653 29.1967C5.15813 28.4287 5.42693 27.8015 5.68293 27.3151C5.96453 26.8287 6.14373 26.3935 6.22053 26.0095C6.29733 25.5999 6.39973 25.2287 6.52773 24.8959C6.50213 24.6143 6.50213 24.4351 6.52773 24.3583C6.55333 24.2559 6.65573 24.0895 6.83493 23.8591C6.96293 23.7567 7.11653 23.5775 7.29573 23.3215C7.50053 23.0399 7.73093 22.6175 7.98693 22.0543C8.06373 21.7983 8.17893 21.4527 8.33253 21.0175C8.51173 20.5567 8.67813 20.0959 8.83173 19.6351C8.98533 19.1487 9.12613 18.7391 9.25413 18.4063C9.38213 18.0735 9.44613 17.8943 9.44613 17.8687C9.49733 17.7663 9.57413 17.5743 9.67653 17.2927C9.77893 16.9855 9.85573 16.7423 9.90693 16.5631C10.0093 16.2047 10.0861 15.9103 10.1373 15.6799C10.2141 15.4495 10.2013 15.3343 10.0989 15.3343C9.89413 15.3855 9.48453 15.4239 8.87013 15.4495C8.56293 15.5007 8.33253 15.5391 8.17893 15.5647C8.05093 15.5647 7.93573 15.5775 7.83333 15.6031C7.57733 15.6287 7.34693 15.6031 7.14213 15.5263C6.93733 15.4495 6.83493 15.2959 6.83493 15.0655C6.88613 14.6559 7.02693 14.2335 7.25733 13.7983C7.51333 13.3631 7.83333 13.1327 8.21733 13.1071C8.39653 13.0559 8.58853 13.0175 8.79333 12.9919C9.02373 12.9407 9.33093 12.8639 9.71493 12.7615C10.2013 12.6591 10.6237 12.6335 10.9821 12.6847C11.3661 12.7103 11.6349 12.7487 11.7885 12.7999C11.9165 12.7231 12.0189 12.6463 12.0957 12.5695C12.1981 12.4671 12.2621 12.3647 12.2877 12.2623C12.4157 11.8015 12.6461 11.4559 12.9789 11.2255C13.3117 10.9695 13.6573 10.8415 14.0157 10.8415C14.3997 10.8159 14.7069 10.9183 14.9373 11.1487C15.1677 11.3535 15.2317 11.6991 15.1293 12.1855C15.1549 12.2623 15.1805 12.3263 15.2061 12.3775C15.2573 12.4287 15.4493 12.4287 15.7821 12.3775C16.1405 12.3007 16.7549 12.1727 17.6253 11.9935C18.0861 11.9423 18.6621 11.8911 19.3533 11.8399C20.0701 11.7887 20.6333 11.8271 21.0429 11.9551C21.4781 11.8783 21.8621 11.8527 22.1949 11.8783C22.5533 11.8783 22.7965 11.8271 22.9245 11.7247C23.4621 11.8271 23.8461 11.9039 24.0765 11.9551C24.3325 11.9807 24.5373 12.0575 24.6909 12.1855C24.7933 12.2879 24.8317 12.3903 24.8061 12.4927C24.7805 12.5695 24.7677 12.6079 24.7677 12.6079C24.6653 12.5567 24.6525 12.5567 24.7293 12.6079C24.8061 12.6335 24.9085 12.6975 25.0365 12.7999C25.2157 12.8767 25.3053 13.0431 25.3053 13.2991C25.3309 13.5295 25.3181 13.7727 25.2669 14.0287C25.2413 14.2591 25.2157 14.4127 25.1901 14.4895C25.1645 14.7199 25.0365 14.8607 24.8061 14.9119C24.5757 14.9375 23.9997 14.9375 23.0781 14.9119C21.9773 14.7583 20.9533 14.7071 20.0061 14.7583C19.0845 14.7839 17.9197 14.8991 16.5117 15.1039C15.9485 15.1295 15.4621 15.2063 15.0525 15.3343C14.6685 15.4367 14.4765 15.4879 14.4765 15.4879C14.3741 15.4879 14.1949 15.6671 13.9389 16.0255C13.6829 16.3583 13.4397 16.8575 13.2093 17.5231C13.1069 17.7023 12.9277 18.0735 12.6717 18.6367C12.4413 19.1999 12.1981 19.8143 11.9421 20.4799C11.6861 21.1199 11.4557 21.6959 11.2509 22.2079C11.0461 22.6943 10.9181 22.9631 10.8669 23.0143C11.2253 23.1167 11.7757 23.1679 12.5181 23.1679C13.2861 23.1679 14.1309 23.1423 15.0525 23.0911C15.9741 23.0143 16.8445 22.9375 17.6637 22.8607C18.0477 22.7839 18.4445 22.7199 18.8541 22.6687C19.2637 22.6175 19.5453 22.6047 19.6989 22.6303C20.0061 22.6559 20.2365 22.8607 20.3901 23.2447C20.5437 23.6031 20.5949 23.9871 20.5437 24.3967C20.4925 24.7807 20.3005 25.0623 19.9677 25.2415Z" fill="white"/>
<path d="M21.4863 35.9935C21.3839 35.7887 21.1535 35.5839 20.7951 35.3791C20.4623 35.1743 20.2959 35.0207 20.2959 34.9183C20.2959 34.8159 20.2319 34.6623 20.1039 34.4575C20.0015 34.2271 19.8991 34.0607 19.7967 33.9583C19.6687 33.8047 19.7071 33.4335 19.9119 32.8447C20.1167 32.2303 20.4239 31.4879 20.8335 30.6175C21.2431 29.7471 21.6911 28.8639 22.1775 27.9679C22.3823 27.7631 22.5871 27.4943 22.7919 27.1615C22.9967 26.8287 23.1503 26.6111 23.2527 26.5087C23.2527 26.4063 23.2911 26.3167 23.3679 26.2399C23.4447 26.1375 23.5343 26.0863 23.6367 26.0863L23.9439 25.4719C23.9951 25.3695 24.1487 25.1647 24.4047 24.8575C24.6863 24.5503 25.0191 24.2175 25.4031 23.8591C25.7871 23.4751 26.1711 23.1167 26.5551 22.7839C26.9647 22.4511 27.2975 22.2079 27.5535 22.0543C28.0911 21.6959 28.6415 21.5295 29.2047 21.5551C29.7935 21.5807 30.2927 21.7599 30.7023 22.0927C30.7791 22.1695 30.9455 22.3231 31.2015 22.5535C31.4831 22.7839 31.7903 23.0399 32.1231 23.3215C32.4815 23.6031 32.7887 23.8591 33.0447 24.0895L34.4655 25.3567L33.8127 27.2767C33.4799 28.3007 33.3903 29.1967 33.5439 29.9647C33.6975 30.7327 33.9407 31.3983 34.2735 31.9615C34.4015 32.2431 34.5679 32.4607 34.7727 32.6143C35.0031 32.7679 35.2975 32.8703 35.6559 32.9215C35.8607 32.9471 36.0527 33.0239 36.2319 33.1519C36.4111 33.2799 36.5007 33.4847 36.5007 33.7663C36.5007 34.3807 36.3855 34.8287 36.1551 35.1103C35.9503 35.3663 35.7199 35.5199 35.4639 35.5711C34.6191 35.6735 33.8127 35.5839 33.0447 35.3023C32.2767 35.0207 31.5855 34.2911 30.9711 33.1135C30.8687 32.9599 30.7279 32.6783 30.5487 32.2687C30.3951 31.8335 30.3055 31.5519 30.2799 31.4239C30.1775 31.5519 30.0367 31.7183 29.8575 31.9231C29.7039 32.1023 29.5503 32.2687 29.3967 32.4223C27.5791 34.2655 26.0175 35.4687 24.7119 36.0319C23.4319 36.5695 22.3567 36.5567 21.4863 35.9935ZM23.5983 32.8063C23.7775 32.8319 24.0591 32.7423 24.4431 32.5375C24.8271 32.3071 25.3391 31.9359 25.9791 31.4239C26.8495 30.6815 27.5663 30.0671 28.1295 29.5807C28.6927 29.0943 29.2431 28.4671 29.7807 27.6991L30.6255 26.3167C30.3695 25.7279 30.1391 25.3439 29.9343 25.1647C29.7295 24.9855 29.5247 24.8959 29.3199 24.8959C28.9871 24.8959 28.5903 25.1135 28.1295 25.5487C27.6687 25.9583 27.1439 26.5727 26.5551 27.3919C25.9919 28.1855 25.3519 29.1839 24.6351 30.3871C24.3023 30.9503 24.0463 31.5007 23.8671 32.0383C23.6879 32.5503 23.5983 32.8063 23.5983 32.8063Z" fill="white"/>
<path d="M38.4318 35.7631C38.2014 35.5839 37.9454 35.3535 37.6638 35.0719C37.4078 34.7903 37.3182 34.3935 37.395 33.8815C37.4718 33.1647 37.5742 32.5375 37.7022 31.9999C37.8302 31.4367 37.9838 30.7967 38.163 30.0799C38.2142 29.7727 38.3422 29.2479 38.547 28.5055C38.7774 27.7631 39.0462 26.9567 39.3534 26.0863C39.6606 25.2159 39.9806 24.3967 40.3134 23.6287C40.6462 22.8351 40.9406 22.2463 41.1966 21.8623C41.4782 21.6063 41.8878 21.4783 42.4254 21.4783C42.9886 21.4783 43.3726 21.5807 43.5774 21.7855C43.859 22.0159 43.9486 22.4255 43.8462 23.0143C43.7438 23.5775 43.3854 24.4607 42.771 25.6639C42.643 25.9711 42.4766 26.3039 42.2718 26.6623C42.0926 26.9951 41.9646 27.2767 41.8878 27.5071C41.811 27.7119 41.8366 27.8015 41.9646 27.7759C42.1182 27.4943 42.3998 27.1743 42.8094 26.8159C43.219 26.4319 43.6542 26.0607 44.115 25.7023C44.5758 25.3439 45.011 25.0239 45.4206 24.7423C45.8302 24.4607 46.1118 24.2815 46.2654 24.2047C46.4702 24.0767 46.7006 23.9743 46.9566 23.8975C47.2382 23.7951 47.4302 23.7183 47.5326 23.6671C48.1214 23.3855 48.7614 23.2831 49.4526 23.3599C50.1694 23.4111 50.6046 23.6287 50.7582 24.0127C50.7838 24.2175 50.8606 24.3711 50.9886 24.4735C51.1422 24.5759 51.219 24.6271 51.219 24.6271C51.3214 24.6271 51.3726 24.6655 51.3726 24.7423C51.3982 24.8191 51.411 24.8575 51.411 24.8575C51.411 25.0367 51.2318 25.2927 50.8734 25.6255C50.5406 25.9583 50.1694 26.1375 49.7598 26.1631C49.427 26.1887 49.1326 26.2527 48.8766 26.3551C48.6206 26.4575 48.3134 26.5855 47.955 26.7391C46.9822 27.3023 46.099 27.8015 45.3054 28.2367C44.5374 28.6719 43.7438 29.3375 42.9246 30.2335C42.7454 30.4383 42.5534 30.6303 42.3486 30.8095C42.1438 30.9887 41.939 31.2447 41.7342 31.5775C41.6062 31.7055 41.4782 31.9871 41.3502 32.4223C41.2222 32.8575 41.107 33.2799 41.0046 33.6895C40.9278 34.0735 40.8894 34.3039 40.8894 34.3807C40.8894 34.3807 40.851 34.5087 40.7742 34.7647C40.6974 34.9951 40.5694 35.2255 40.3902 35.4559C40.083 35.8655 39.7758 36.1215 39.4686 36.2239C39.187 36.3263 38.8414 36.1727 38.4318 35.7631Z" fill="white"/>
<path d="M54.9573 36.2623C54.7525 36.3135 54.4837 36.3391 54.1509 36.3391C53.8181 36.3135 53.5237 36.2751 53.2677 36.2239C53.0373 36.1471 52.9221 36.0703 52.9221 35.9935C52.9221 35.8655 52.8581 35.8015 52.7301 35.8015C52.7301 35.8015 52.5893 35.6991 52.3077 35.4943C52.0261 35.2639 51.7701 35.0975 51.5397 34.9951C51.3093 34.6367 51.1557 34.2271 51.0789 33.7663C51.0277 33.2799 51.1813 32.4351 51.5397 31.2319C51.5653 30.4127 51.7957 29.5551 52.2309 28.6591C52.6661 27.7375 53.2165 26.8415 53.8821 25.9711C54.5477 25.1007 55.2389 24.3327 55.9557 23.6671C56.6725 22.9759 57.3125 22.4639 57.8757 22.1311C58.2341 21.7727 58.7077 21.5807 59.2965 21.5551C59.9109 21.5295 60.4485 21.6447 60.9093 21.9007C61.1653 22.0287 61.4469 22.2847 61.7541 22.6687C62.0613 23.0527 62.3557 23.4623 62.6373 23.8975C62.9189 24.3071 63.1365 24.6783 63.2901 25.0111C63.3669 25.2927 63.4309 25.5487 63.4821 25.7791C63.5589 25.9839 63.6101 26.2399 63.6357 26.5471C63.6613 26.8543 63.6357 27.3151 63.5589 27.9295C63.4309 28.3903 63.3157 28.8639 63.2133 29.3503C63.1365 29.8111 63.0981 30.2847 63.0981 30.7711C63.0469 31.2575 63.0981 31.6031 63.2517 31.8079C63.4309 32.0127 63.6869 32.0255 64.0197 31.8463C64.3269 31.6927 64.6469 31.6799 64.9797 31.8079C65.3125 31.9103 65.5429 32.1151 65.6709 32.4223C65.8245 32.7039 65.7861 33.0751 65.5557 33.5359C65.4021 33.8687 65.1589 34.1887 64.8261 34.4959C64.4933 34.8031 64.1221 35.0591 63.7125 35.2639C63.3029 35.4431 62.9061 35.5327 62.5221 35.5327C62.2405 35.5327 61.9589 35.4303 61.6773 35.2255C61.3957 34.9951 61.1397 34.6879 60.9093 34.3039C60.6789 33.9199 60.4869 33.4975 60.3333 33.0367L60.1029 32.1535L58.7205 33.4207C58.3877 33.7791 58.0549 34.1119 57.7221 34.4191C57.4149 34.7007 57.2229 34.9055 57.1461 35.0335C57.0181 35.2639 56.7621 35.4687 56.3781 35.6479C56.0197 35.8271 55.5461 36.0319 54.9573 36.2623ZM55.9941 32.5759C56.4293 32.3199 56.8005 32.0127 57.1077 31.6543C57.4405 31.2959 57.7605 30.8991 58.0677 30.4639C58.3749 30.0031 58.7077 29.5167 59.0661 29.0047C59.5013 28.4159 59.8085 27.9423 59.9877 27.5839C60.1925 27.2255 60.3461 26.8415 60.4485 26.4319C60.3461 26.1503 60.2053 25.8559 60.0261 25.5487C59.8469 25.2159 59.6677 25.0367 59.4885 25.0111C59.1301 25.0111 58.6949 25.2287 58.1829 25.6639C57.6965 26.0991 57.1589 26.7263 56.5701 27.5455C56.4677 27.6735 56.3397 27.8783 56.1861 28.1599C56.0325 28.4415 55.8789 28.7103 55.7253 28.9663C55.5973 29.1967 55.5077 29.3503 55.4565 29.4271C55.3797 29.5295 55.2645 29.7727 55.1109 30.1567C54.9829 30.5151 54.8677 30.8863 54.7653 31.2703C54.6629 31.6287 54.6117 31.8847 54.6117 32.0383C54.6117 32.1919 54.6245 32.3583 54.6501 32.5375C54.7013 32.7167 54.8293 32.8319 55.0341 32.8831C55.2389 32.9343 55.5589 32.8319 55.9941 32.5759Z" fill="white"/>
<path d="M79.6161 36.1855C78.9761 36.4927 78.3489 36.6079 77.7345 36.5311C77.1457 36.4287 76.6465 36.1087 76.2369 35.5711C75.8529 35.0079 75.6609 34.1887 75.6609 33.1135C75.6609 32.8319 75.6737 32.4991 75.6993 32.1151C75.7505 31.7055 75.8273 31.2831 75.9297 30.8479C76.0321 30.3871 76.1601 29.9263 76.3137 29.4655C76.3905 29.2351 76.4929 29.0047 76.6209 28.7743C76.7745 28.5439 76.8001 28.4287 76.6977 28.4287C76.5953 28.4287 76.4673 28.4927 76.3137 28.6207C76.1857 28.7487 76.0833 28.8511 76.0065 28.9279C75.3665 29.4911 74.7777 30.0799 74.2401 30.6943C73.7281 31.2831 73.2673 31.8719 72.8577 32.4607C72.4737 33.0239 72.1665 33.5487 71.9361 34.0351C71.7313 34.5215 71.6289 34.9311 71.6289 35.2639C71.6289 35.6479 71.4369 35.9167 71.0529 36.0703C70.6689 36.2239 70.3361 36.2111 70.0545 36.0319C69.5681 35.7503 69.1201 35.3151 68.7105 34.7263C68.3265 34.1375 68.1729 33.3695 68.2497 32.4223C68.3265 31.2191 68.4289 30.1439 68.5569 29.1967C68.6849 28.2495 68.8897 27.2255 69.1713 26.1247C69.4785 24.9983 69.8753 23.6287 70.3617 22.0159C70.6945 21.1199 71.0017 20.2751 71.2833 19.4815C71.5649 18.6623 71.8081 17.9711 72.0129 17.4079C72.2433 16.8447 72.3841 16.4991 72.4353 16.3711C72.5633 16.2431 72.7297 15.9359 72.9345 15.4495C73.1393 14.9375 73.3185 14.4255 73.4721 13.9135C73.6513 13.4015 73.7409 13.0943 73.7409 12.9919C73.7409 12.7871 73.7793 12.6079 73.8561 12.4543C73.9585 12.3007 74.0481 12.1599 74.1249 12.0319C74.2785 11.6735 74.4065 11.4303 74.5089 11.3023C74.6369 11.1487 74.7521 11.0719 74.8545 11.0719C74.9825 11.0719 75.1873 11.1359 75.4689 11.2639C75.7761 11.3919 76.0577 11.5583 76.3137 11.7631C76.5953 11.9423 76.7617 12.1343 76.8129 12.3391C76.9921 12.6975 77.0945 13.0687 77.1201 13.4527C77.1457 13.8111 77.0561 14.2591 76.8513 14.7967C76.6465 15.3343 76.2881 16.0767 75.7761 17.0239C75.3665 17.8175 74.9953 18.6367 74.6625 19.4815C74.3297 20.3263 74.0097 21.2095 73.7025 22.1311C73.5745 22.5151 73.4081 23.0271 73.2033 23.6671C72.9985 24.2815 72.7937 24.9215 72.5889 25.5871C72.4097 26.2271 72.2561 26.8031 72.1281 27.3151C72.0001 27.8271 71.9361 28.1599 71.9361 28.3135C71.9361 28.4927 72.0385 28.5823 72.2433 28.5823C72.4481 28.5567 72.6529 28.4031 72.8577 28.1215C72.9601 27.9167 73.1265 27.7247 73.3569 27.5455C73.5873 27.3407 73.7921 27.1359 73.9713 26.9311C74.1761 26.6751 74.4193 26.3807 74.7009 26.0479C75.0081 25.6895 75.3281 25.3567 75.6609 25.0495C76.0193 24.7167 76.3393 24.4479 76.6209 24.2431C76.9281 24.0383 77.1841 23.9359 77.3889 23.9359C77.8753 23.9359 78.2849 24.0767 78.6177 24.3583C78.9505 24.6399 79.2321 25.0751 79.4625 25.6639C79.5393 25.7407 79.6161 25.8431 79.6929 25.9711C79.7697 26.0735 79.8209 26.1503 79.8465 26.2015C79.9745 26.3039 80.0385 26.7135 80.0385 27.4303C80.0385 28.1215 79.8337 29.0815 79.4241 30.3103C79.1937 31.2575 79.0529 31.9615 79.0017 32.4223C78.9761 32.8831 79.0657 33.1135 79.2705 33.1135C79.2705 33.1135 79.3985 33.0367 79.6545 32.8831C79.9361 32.7295 80.2305 32.5631 80.5377 32.3839C81.2801 31.8975 81.8177 31.7439 82.1505 31.9231C82.4833 32.1023 82.6497 32.3327 82.6497 32.6143C82.6497 32.8447 82.5601 33.1135 82.3809 33.4207C82.2273 33.7279 82.1505 33.9327 82.1505 34.0351C82.1505 34.0351 82.1505 34.0479 82.1505 34.0735C82.1505 34.0735 82.1505 34.1247 82.1505 34.2271C82.1505 34.2783 81.9841 34.4575 81.6513 34.7647C81.3185 35.0719 80.9473 35.3791 80.5377 35.6863C80.1537 35.9679 79.8465 36.1343 79.6161 36.1855Z" fill="white"/>
<path d="M92.8671 38.0671C92.4063 37.8111 92.1503 37.5295 92.0991 37.2223C92.0735 36.9151 92.2527 36.3775 92.6367 35.6095C93.0207 34.8415 93.6223 33.6511 94.4415 32.0383C95.0559 30.8863 95.4655 29.9903 95.6703 29.3503C95.9007 28.6847 96.0287 28.2111 96.0543 27.9295C96.0799 27.6479 96.0927 27.4687 96.0927 27.3919C96.0415 27.1615 96.0671 26.9823 96.1695 26.8543C96.2719 26.7007 96.4383 26.5727 96.6687 26.4703C96.7967 26.3423 97.0911 26.1119 97.5519 25.7791C98.0127 25.4463 98.3711 25.0495 98.6271 24.5887C98.8575 24.0511 99.1135 23.5007 99.3951 22.9375C99.7023 22.3743 100.099 21.6703 100.586 20.8255C101.072 19.9551 101.725 18.8287 102.544 17.4463C103.056 16.5503 103.658 15.5391 104.349 14.4127C105.066 13.2863 105.77 12.2623 106.461 11.3407C106.742 10.9823 107.037 10.7007 107.344 10.4959C107.651 10.2911 107.92 10.1887 108.15 10.1887C108.714 10.1887 109.277 10.3423 109.84 10.6495C110.403 10.9311 110.902 11.2895 111.338 11.7247C111.773 12.1599 112.067 12.5695 112.221 12.9535C112.349 13.1583 112.4 13.5935 112.374 14.2591C112.349 14.9247 112.298 15.7311 112.221 16.6783C112.144 17.6255 112.054 18.6367 111.952 19.7119C111.875 20.7615 111.76 22.0031 111.606 23.4367C111.453 24.8703 111.299 26.3679 111.146 27.9295C111.018 29.4911 110.915 31.0015 110.838 32.4607C110.762 33.8943 110.762 35.1487 110.838 36.2239C110.864 36.4543 110.864 36.6719 110.838 36.8767C110.813 37.0815 110.8 37.2479 110.8 37.3759C110.646 37.5295 110.314 37.5935 109.802 37.5679C109.29 37.5679 108.79 37.4911 108.304 37.3375C107.818 37.1839 107.549 36.9919 107.498 36.7615C107.421 36.6847 107.37 36.6207 107.344 36.5695C107.318 36.5183 107.318 36.2751 107.344 35.8399C107.37 35.3791 107.408 34.5471 107.459 33.3439L107.651 27.4687L107.152 27.5071C106.922 27.5071 106.499 27.5327 105.885 27.5839C105.296 27.6351 104.643 27.7119 103.926 27.8143C103.235 27.8911 102.595 27.9807 102.006 28.0831C101.418 28.1599 101.008 28.2367 100.778 28.3135C100.547 28.3135 100.266 28.4671 99.9327 28.7743C99.6255 29.0815 99.3311 29.4783 99.0495 29.9647C98.9471 30.3231 98.7551 30.7071 98.4735 31.1167C98.2175 31.5007 98.0895 31.7567 98.0895 31.8847C97.9103 32.0127 97.7567 32.1663 97.6287 32.3455C97.5263 32.5247 97.4751 32.6143 97.4751 32.6143C97.4751 32.7679 97.3599 33.1519 97.1295 33.7663C96.8991 34.3551 96.6175 35.0207 96.2847 35.7631C95.9519 36.4799 95.6063 37.1071 95.2479 37.6447L94.2111 39.1039L92.8671 38.0671ZM102.045 24.8575C102.045 24.8575 102.186 24.8319 102.467 24.7807C102.749 24.7295 103.082 24.6783 103.466 24.6271C103.875 24.5503 104.234 24.5119 104.541 24.5119C105.13 24.3583 105.616 24.2431 106 24.1663C106.41 24.0895 106.742 24.0511 106.998 24.0511C107.254 24.0255 107.459 24.0511 107.613 24.1279C107.715 24.2559 107.805 24.3327 107.882 24.3583C107.984 24.3839 108.035 24.3967 108.035 24.3967C108.061 24.3455 108.112 24.0767 108.189 23.5903C108.266 23.1039 108.355 22.5023 108.458 21.7855C108.56 21.0687 108.662 20.3263 108.765 19.5583C108.867 18.7647 108.957 18.0351 109.034 17.3695C109.11 16.6783 109.162 16.1407 109.187 15.7567C109.213 15.2703 109.2 14.8351 109.149 14.4511C109.098 14.0415 109.072 13.8367 109.072 13.8367C108.918 13.8367 108.624 14.1183 108.189 14.6815C107.779 15.2191 107.293 15.9487 106.73 16.8703C106.192 17.7663 105.654 18.7391 105.117 19.7887C104.861 20.2751 104.618 20.6591 104.387 20.9407C104.182 21.2223 104.016 21.3631 103.888 21.3631C103.837 21.4143 103.696 21.6191 103.466 21.9775C103.261 22.3103 103.03 22.6943 102.774 23.1295C102.544 23.5391 102.339 23.9231 102.16 24.2815C102.006 24.6143 101.968 24.8063 102.045 24.8575Z" fill="white"/>
<path d="M114.246 37.9519C113.913 37.8239 113.644 37.6191 113.44 37.3375C113.235 37.0815 113.12 36.6975 113.094 36.1855C113.068 35.8527 113.081 35.3663 113.132 34.7263C113.184 34.0607 113.273 33.3951 113.401 32.7295C113.401 32.6783 113.401 32.6271 113.401 32.5759C113.427 32.4991 113.44 32.4479 113.44 32.4223C113.465 32.3199 113.491 32.1663 113.516 31.9615C113.542 31.7311 113.568 31.5519 113.593 31.4239C113.644 31.2703 113.67 31.2575 113.67 31.3855L113.9 30.3487C114.003 29.8879 114.118 29.4143 114.246 28.9279C114.374 28.4415 114.489 28.0191 114.592 27.6607C114.72 27.2767 114.796 27.0591 114.822 27.0079C114.822 27.0079 114.86 26.8671 114.937 26.5855C115.04 26.2783 115.142 25.9711 115.244 25.6639C115.654 24.3839 116.038 23.3215 116.396 22.4767C116.78 21.6319 117.113 21.0175 117.395 20.6335C117.42 20.5567 117.459 20.4671 117.51 20.3647C117.561 20.2367 117.6 20.1343 117.625 20.0575C117.625 19.7759 117.638 19.5711 117.664 19.4431C117.715 19.3151 117.779 19.1999 117.856 19.0975C117.907 18.9951 117.984 18.8671 118.086 18.7135C118.188 18.5343 118.304 18.3167 118.432 18.0607L118.585 17.6383C118.739 17.3055 118.931 16.9215 119.161 16.4863C119.392 16.0255 119.558 15.6799 119.66 15.4495C119.737 15.2191 119.891 14.9503 120.121 14.6431C120.352 14.3103 120.608 14.0927 120.889 13.9903L120.851 13.9519C120.979 13.7215 121.222 13.5423 121.58 13.4143C121.939 13.2607 122.233 13.1839 122.464 13.1839C122.822 13.1839 123.091 13.2863 123.27 13.4911C123.475 13.6959 123.577 13.9775 123.577 14.3359C123.577 14.7199 123.564 15.0015 123.539 15.1807C123.539 15.3343 123.449 15.5135 123.27 15.7183H123.308C123.36 15.6671 123.347 15.7439 123.27 15.9487C123.193 16.1535 123.129 16.2943 123.078 16.3711C123.027 16.4991 122.963 16.6399 122.886 16.7935C122.835 16.9471 122.771 17.0623 122.694 17.1391C122.617 17.2415 122.412 17.5999 122.08 18.2143C121.747 18.8031 121.376 19.5071 120.966 20.3263C120.556 21.1199 120.16 21.9007 119.776 22.6687C119.417 23.4111 119.161 23.9871 119.008 24.3967L118.816 24.9727C118.79 25.0751 118.777 25.1519 118.777 25.2031C118.7 25.3823 118.624 25.5615 118.547 25.7407C118.47 25.9199 118.393 26.0735 118.316 26.2015L117.702 28.5823L117.548 29.3887L117.203 30.2719L116.972 31.0015C116.921 31.1551 116.883 31.3215 116.857 31.5007C116.832 31.6799 116.78 31.8079 116.704 31.8847C116.704 31.9103 116.691 31.9487 116.665 31.9999C116.665 32.0255 116.665 32.0511 116.665 32.0767C116.563 32.4863 116.384 33.0623 116.128 33.8047C115.897 34.5471 115.756 35.3663 115.705 36.2623C115.705 36.2879 115.692 36.3135 115.667 36.3391C115.667 36.3647 115.667 36.3903 115.667 36.4159C115.59 36.9535 115.424 37.3631 115.168 37.6447C114.937 37.9519 114.63 38.0543 114.246 37.9519Z" fill="white"/>
<path d="M122.3 35.3407C122.121 35.3663 121.916 35.3023 121.685 35.1487C121.481 34.9695 121.289 34.8159 121.109 34.6879C120.853 34.3807 120.674 34.1119 120.572 33.8815C120.469 33.6511 120.418 33.3951 120.418 33.1135C120.418 32.8319 120.444 32.4991 120.495 32.1151C120.623 31.7055 120.777 31.1551 120.956 30.4639C121.135 29.7727 121.353 29.0303 121.609 28.2367C121.66 27.9295 121.749 27.5711 121.877 27.1615C122.031 26.7263 122.185 26.3167 122.338 25.9327C122.492 25.5231 122.607 25.2159 122.684 25.0111C122.863 24.3711 123.042 23.7567 123.221 23.1679C123.426 22.5791 123.669 21.9007 123.951 21.1327C124.233 20.3647 124.578 19.3919 124.988 18.2143C125.551 16.6783 125.973 15.5263 126.255 14.7583C126.537 13.9903 126.741 13.4399 126.869 13.1071C126.997 12.7743 127.087 12.5055 127.138 12.3007C127.138 12.0959 127.279 11.9039 127.561 11.7247C127.868 11.5199 128.137 11.4175 128.367 11.4175C128.725 11.4431 129.071 11.6607 129.404 12.0703C129.737 12.4543 129.967 12.9279 130.095 13.4911C130.223 14.0287 130.133 14.5535 129.826 15.0655C129.417 15.9871 129.007 17.0239 128.597 18.1759C128.213 19.3023 127.829 20.4287 127.445 21.5551C127.061 22.6815 126.677 23.7183 126.293 24.6655C126.268 24.7935 126.178 25.0111 126.025 25.3183C125.897 25.6255 125.781 25.8815 125.679 26.0863C125.577 26.2911 125.474 26.4831 125.372 26.6623C125.295 26.8415 125.257 26.9311 125.257 26.9311C125.231 27.0847 125.18 27.3023 125.103 27.5839C125.026 27.8655 124.949 28.1087 124.873 28.3135C124.847 28.4415 124.809 28.6079 124.757 28.8127C124.706 29.0175 124.668 29.2223 124.642 29.4271C124.77 29.2735 124.949 29.0943 125.18 28.8895C125.41 28.6591 125.705 28.3775 126.063 28.0447C126.473 27.6863 126.831 27.3791 127.138 27.1231C127.445 26.8671 127.753 26.6367 128.06 26.4319C128.341 26.2271 128.597 26.0351 128.828 25.8559C129.084 25.6767 129.212 25.5871 129.212 25.5871C129.263 25.5103 129.314 25.4207 129.365 25.3183C129.442 25.2159 129.519 25.1519 129.596 25.1263C129.647 25.0751 129.737 25.0111 129.865 24.9343C129.993 24.8319 130.121 24.7295 130.249 24.6271C130.479 24.4735 130.722 24.3455 130.978 24.2431C131.234 24.1407 131.503 24.0639 131.785 24.0127C132.066 23.9615 132.335 23.9359 132.591 23.9359C132.898 23.9359 133.218 24.0639 133.551 24.3199C133.884 24.5503 134.191 24.8831 134.473 25.3183C134.729 25.6511 134.882 26.0479 134.933 26.5087C135.01 26.9439 135.023 27.5327 134.972 28.2751C134.972 28.4799 134.908 28.8639 134.78 29.4271C134.677 29.9903 134.601 30.4127 134.549 30.6943L134.204 31.9999H134.511C134.793 31.8975 135.061 31.8847 135.317 31.9615C135.599 32.0383 135.74 32.0767 135.74 32.0767C135.868 32.1535 135.983 32.2431 136.085 32.3455C136.213 32.4479 136.329 32.5247 136.431 32.5759C136.585 32.7807 136.559 33.0751 136.354 33.4591C136.149 33.8431 135.919 34.1119 135.663 34.2655C135.049 34.6751 134.498 34.9311 134.012 35.0335C133.551 35.1359 133.065 35.0463 132.553 34.7647C132.066 34.4319 131.733 34.0351 131.554 33.5743C131.401 33.1135 131.337 32.4863 131.362 31.6927C131.465 30.5663 131.529 29.7599 131.554 29.2735C131.58 28.7615 131.452 28.5055 131.17 28.5055C130.863 28.5055 130.441 28.6591 129.903 28.9663C129.391 29.2479 128.815 29.6447 128.175 30.1567C127.535 30.6431 126.895 31.1935 126.255 31.8079C125.641 32.3967 125.09 32.9983 124.604 33.6127C124.297 33.9967 123.964 34.3807 123.605 34.7647C123.247 35.1231 122.812 35.3151 122.3 35.3407Z" fill="white"/>
<path d="M141.218 36.1087C140.911 36.1855 140.565 36.0959 140.181 35.8399C139.797 35.5839 139.451 35.2639 139.144 34.8799C138.837 34.4959 138.645 34.1503 138.568 33.8431C138.466 33.3055 138.491 32.6527 138.645 31.8847C138.824 31.0911 139.119 30.2591 139.528 29.3887C139.938 28.4927 140.45 27.6223 141.064 26.7775C141.679 25.9071 142.37 25.1263 143.138 24.4351C143.906 23.7439 144.738 23.2063 145.634 22.8223C146.018 22.6175 146.287 22.4895 146.44 22.4383C146.594 22.3615 146.747 22.3615 146.901 22.4383C147.055 22.4895 147.323 22.6175 147.707 22.8223C148.066 22.9247 148.424 23.0527 148.783 23.2063C149.167 23.3343 149.499 23.5903 149.781 23.9743C149.986 24.3583 150.139 24.7423 150.242 25.1263C150.344 25.5103 150.434 25.9455 150.511 26.4319C150.715 27.0719 150.792 27.4943 150.741 27.6991C150.69 27.8783 150.613 28.0191 150.511 28.1215C150.306 28.3775 150.255 28.5055 150.357 28.5055C150.357 28.5055 150.344 28.5567 150.319 28.6591C150.319 28.7359 150.267 28.8639 150.165 29.0431C149.986 29.6063 149.845 30.1439 149.743 30.6559C149.666 31.1423 149.679 31.5775 149.781 31.9615C149.986 32.5247 150.255 32.8575 150.587 32.9599C150.946 33.0623 151.407 32.8319 151.97 32.2687C152.251 32.0639 152.571 31.9359 152.93 31.8847C153.288 31.8079 153.467 31.8719 153.467 32.0767C153.467 32.0767 153.506 32.1151 153.583 32.1919C153.659 32.2431 153.749 32.2687 153.851 32.2687C153.979 32.2687 154.031 32.3967 154.005 32.6527C153.979 32.8831 153.928 33.1519 153.851 33.4591C153.775 33.7663 153.672 34.0223 153.544 34.2271C153.16 34.6111 152.968 34.8671 152.968 34.9951C152.968 34.9951 152.917 35.0463 152.815 35.1487C152.738 35.2255 152.597 35.3535 152.392 35.5327C151.931 35.8143 151.343 35.9551 150.626 35.9551C149.935 35.9551 149.397 35.8143 149.013 35.5327C148.629 35.2511 148.245 34.9055 147.861 34.4959C147.503 34.0863 147.272 33.7023 147.17 33.3439L146.978 32.9599L145.864 33.6895C145.583 33.9711 145.378 34.1887 145.25 34.3423C145.122 34.4703 145.007 34.5855 144.904 34.6879C144.827 34.7903 144.738 34.8799 144.635 34.9567C144.559 35.0335 144.469 35.0719 144.367 35.0719C144.264 35.0719 144.175 35.0719 144.098 35.0719C144.021 35.0719 143.983 35.0719 143.983 35.0719C143.983 35.1743 143.803 35.3151 143.445 35.4943C143.087 35.6479 142.69 35.7887 142.255 35.9167C141.819 36.0447 141.474 36.1087 141.218 36.1087ZM142.024 32.8831C142.178 32.8831 142.408 32.7935 142.715 32.6143C143.048 32.4095 143.407 32.1663 143.791 31.8847C144.175 31.6031 144.52 31.3215 144.827 31.0399C145.16 30.7583 145.403 30.5279 145.557 30.3487C145.659 30.2463 145.775 30.0799 145.903 29.8495C146.056 29.6191 146.223 29.4143 146.402 29.2351C146.991 28.5695 147.362 28.0447 147.515 27.6607C147.669 27.2511 147.605 26.8159 147.323 26.3551C147.221 26.0735 147.093 25.9199 146.939 25.8943C146.786 25.8687 146.466 25.9583 145.979 26.1631C145.672 26.3423 145.339 26.6367 144.981 27.0463C144.623 27.4559 144.251 27.9167 143.867 28.4287C143.509 28.9407 143.176 29.4655 142.869 30.0031C142.562 30.5407 142.306 31.0271 142.101 31.4623C141.922 31.8975 141.832 32.2431 141.832 32.4991C141.832 32.6015 141.858 32.6911 141.909 32.7679C141.986 32.8447 142.024 32.8831 142.024 32.8831Z" fill="white"/>
<path d="M166.061 36.7615C165.677 36.7871 165.318 36.7999 164.985 36.7999C164.678 36.7999 164.435 36.7487 164.256 36.6463C163.795 36.2623 163.488 35.9551 163.334 35.7247C163.206 35.4943 163.142 35.2383 163.142 34.9567C163.168 34.5983 163.181 34.2399 163.181 33.8815C163.181 33.4975 163.181 33.2031 163.181 32.9983C163.078 32.8959 162.873 33.0111 162.566 33.3439C162.259 33.6767 161.901 33.9967 161.491 34.3039C160.697 35.1999 159.993 35.8527 159.379 36.2623C158.765 36.6463 158.201 36.8639 157.689 36.9151C157.177 36.9919 156.665 37.0047 156.153 36.9535C155.693 36.9023 155.283 36.6719 154.925 36.2623C154.592 35.8527 154.336 35.3535 154.157 34.7647C154.003 34.1759 153.952 33.5999 154.003 33.0367C154.131 31.9871 154.361 31.0399 154.694 30.1951C155.027 29.3247 155.526 28.4159 156.192 27.4687C156.499 27.0591 156.909 26.6111 157.421 26.1247C157.958 25.6383 158.534 25.1903 159.149 24.7807C159.763 24.3455 160.313 24.0383 160.8 23.8591C161.542 23.5263 162.157 23.3727 162.643 23.3983C163.155 23.4239 163.654 23.5007 164.141 23.6287C164.499 23.8079 164.781 23.8975 164.985 23.8975C165.216 23.8975 165.382 23.7695 165.485 23.5135C165.638 23.3087 165.753 23.0527 165.83 22.7455C165.907 22.4383 166.035 22.1439 166.214 21.8623L167.059 19.3663C167.341 18.6751 167.673 17.8815 168.057 16.9855C168.441 16.0895 168.877 15.0911 169.363 13.9903C169.952 12.9919 170.451 12.4671 170.861 12.4159C171.296 12.3647 171.744 12.5951 172.205 13.1071C172.512 13.4143 172.678 13.7983 172.704 14.2591C172.755 14.6943 172.64 15.2063 172.358 15.7951C172.179 16.0767 171.987 16.4351 171.782 16.8703C171.577 17.2799 171.334 17.7663 171.053 18.3295C170.771 18.9951 170.477 19.6607 170.169 20.3263C169.888 20.9919 169.593 21.7215 169.286 22.5151C169.184 22.9247 169.043 23.3983 168.864 23.9359C168.71 24.4735 168.582 24.9599 168.48 25.3951C168.403 25.8047 168.313 26.1887 168.211 26.5471C168.134 26.8799 168.045 27.0463 167.942 27.0463C167.737 27.2255 167.545 27.6095 167.366 28.1983C167.187 28.7615 167.033 29.3631 166.905 30.0031C166.803 30.6431 166.713 31.1679 166.637 31.5775C166.585 31.8847 166.547 32.3199 166.521 32.8831C166.496 33.4207 166.483 33.9455 166.483 34.4575C166.483 34.9439 166.483 35.2767 166.483 35.4559C166.483 35.9423 166.445 36.2879 166.368 36.4927C166.317 36.6719 166.214 36.7615 166.061 36.7615ZM157.382 33.7279C157.971 33.7279 158.521 33.4847 159.033 32.9983C159.571 32.4863 160.16 31.9487 160.8 31.3855C161.184 31.0015 161.581 30.5791 161.99 30.1183C162.4 29.6319 162.771 29.1583 163.104 28.6975C163.462 28.2367 163.744 27.8399 163.949 27.5071C164.153 27.1743 164.256 26.9567 164.256 26.8543C164.256 26.7263 164.153 26.6111 163.949 26.5087C163.769 26.4063 163.552 26.3295 163.296 26.2783C163.04 26.2015 162.809 26.1887 162.605 26.2399C161.99 26.4191 161.491 26.6879 161.107 27.0463C160.749 27.4047 160.224 27.9679 159.533 28.7359C158.841 29.5807 158.291 30.3871 157.881 31.1551C157.472 31.9231 157.216 32.5503 157.113 33.0367C157.037 33.4975 157.126 33.7279 157.382 33.7279Z" fill="white"/>
<path d="M180.359 37.2607C180.077 37.3631 179.757 37.4143 179.399 37.4143C179.066 37.4399 178.682 37.2863 178.247 36.9535C177.991 36.6719 177.811 36.3775 177.709 36.0703C177.632 35.7631 177.594 35.2895 177.594 34.6495C177.645 34.2655 177.747 33.7151 177.901 32.9983C178.055 32.2559 178.221 31.4879 178.4 30.6943C178.605 29.8751 178.784 29.1455 178.938 28.5055C179.117 27.8399 179.258 27.3919 179.36 27.1615C179.539 26.5471 179.578 26.1631 179.475 26.0095C179.373 25.8559 179.066 25.7663 178.554 25.7407C177.965 25.7151 177.351 25.9967 176.711 26.5855C176.071 27.1743 175.341 28.1087 174.522 29.3887C173.907 30.3359 173.536 31.1167 173.408 31.7311C173.28 32.3199 173.267 32.7295 173.37 32.9599C173.421 33.0623 173.511 33.1263 173.639 33.1519C173.792 33.1519 173.971 33.1135 174.176 33.0367C174.407 32.9599 174.65 32.8575 174.906 32.7295C175.085 32.6271 175.303 32.5247 175.559 32.4223C175.84 32.2943 176.109 32.1791 176.365 32.0767C176.519 32.0767 176.621 32.1663 176.672 32.3455C176.749 32.5247 176.787 32.7423 176.787 32.9983C176.787 33.1007 176.813 33.2927 176.864 33.5743C176.941 33.8559 177.069 34.0479 177.248 34.1503C177.351 34.2527 177.133 34.4703 176.595 34.8031C176.083 35.1103 175.418 35.4943 174.599 35.9551C173.831 36.1343 173.255 36.2239 172.871 36.2239C172.512 36.2239 172.115 36.0575 171.68 35.7247C170.963 35.2895 170.503 34.4831 170.298 33.3055C170.119 32.1279 170.272 30.8223 170.759 29.3887C171.245 28.2367 171.783 27.2511 172.371 26.4319C172.986 25.5871 173.626 24.8191 174.291 24.1279C174.394 24.0255 174.714 23.8207 175.251 23.5135C175.789 23.2063 176.339 22.9631 176.903 22.7839C177.543 22.5791 178.08 22.5023 178.515 22.5535C178.976 22.5791 179.411 22.7327 179.821 23.0143C180.282 23.1167 180.589 23.1039 180.743 22.9759C180.922 22.8479 181.127 22.4895 181.357 21.9007C181.818 20.6207 182.304 19.3279 182.816 18.0223C183.328 16.6911 183.866 15.3471 184.429 13.9903C184.685 13.5039 184.839 13.1327 184.89 12.8767C184.967 12.5951 185.056 12.4031 185.159 12.3007L186.234 11.9551C186.515 11.8783 186.835 12.0063 187.194 12.3391C187.578 12.6719 187.821 12.9919 187.923 13.2991C187.923 13.5295 187.821 14.0415 187.616 14.8351C187.411 15.6031 187.079 16.5247 186.618 17.5999C186.208 18.5471 185.799 19.5071 185.389 20.4799C185.005 21.4271 184.634 22.4383 184.275 23.5135C183.994 24.3071 183.738 24.9471 183.507 25.4335C183.277 25.9199 183.123 26.3423 183.047 26.7007C182.893 27.3663 182.701 27.9679 182.471 28.5055C182.266 29.0175 182.125 29.3759 182.048 29.5807C181.715 30.5535 181.459 31.3599 181.28 31.9999C181.101 32.6143 180.986 33.1519 180.935 33.6127C180.883 34.0479 180.871 34.4831 180.896 34.9183C180.922 35.3279 180.973 35.8015 181.05 36.3391C181.05 36.4415 180.973 36.5951 180.819 36.7999C180.691 36.9791 180.538 37.1327 180.359 37.2607Z" fill="white"/>
<path d="M186.861 35.9935C186.759 35.7887 186.529 35.5839 186.17 35.3791C185.837 35.1743 185.671 35.0207 185.671 34.9183C185.671 34.8159 185.607 34.6623 185.479 34.4575C185.377 34.2271 185.274 34.0607 185.172 33.9583C185.044 33.8047 185.082 33.4335 185.287 32.8447C185.492 32.2303 185.799 31.4879 186.209 30.6175C186.618 29.7471 187.066 28.8639 187.553 27.9679C187.757 27.7631 187.962 27.4943 188.167 27.1615C188.372 26.8287 188.525 26.6111 188.628 26.5087C188.628 26.4063 188.666 26.3167 188.743 26.2399C188.82 26.1375 188.909 26.0863 189.012 26.0863L189.319 25.4719C189.37 25.3695 189.524 25.1647 189.78 24.8575C190.061 24.5503 190.394 24.2175 190.778 23.8591C191.162 23.4751 191.546 23.1167 191.93 22.7839C192.34 22.4511 192.673 22.2079 192.929 22.0543C193.466 21.6959 194.017 21.5295 194.58 21.5551C195.169 21.5807 195.668 21.7599 196.077 22.0927C196.154 22.1695 196.321 22.3231 196.577 22.5535C196.858 22.7839 197.165 23.0399 197.498 23.3215C197.857 23.6031 198.164 23.8591 198.42 24.0895L199.841 25.3567L199.188 27.2767C198.855 28.3007 198.765 29.1967 198.919 29.9647C199.073 30.7327 199.316 31.3983 199.649 31.9615C199.777 32.2431 199.943 32.4607 200.148 32.6143C200.378 32.7679 200.673 32.8703 201.031 32.9215C201.236 32.9471 201.428 33.0239 201.607 33.1519C201.786 33.2799 201.876 33.4847 201.876 33.7663C201.876 34.3807 201.761 34.8287 201.53 35.1103C201.325 35.3663 201.095 35.5199 200.839 35.5711C199.994 35.6735 199.188 35.5839 198.42 35.3023C197.652 35.0207 196.961 34.2911 196.346 33.1135C196.244 32.9599 196.103 32.6783 195.924 32.2687C195.77 31.8335 195.681 31.5519 195.655 31.4239C195.553 31.5519 195.412 31.7183 195.233 31.9231C195.079 32.1023 194.925 32.2687 194.772 32.4223C192.954 34.2655 191.393 35.4687 190.087 36.0319C188.807 36.5695 187.732 36.5567 186.861 35.9935ZM188.973 32.8063C189.153 32.8319 189.434 32.7423 189.818 32.5375C190.202 32.3071 190.714 31.9359 191.354 31.4239C192.225 30.6815 192.941 30.0671 193.505 29.5807C194.068 29.0943 194.618 28.4671 195.156 27.6991L196.001 26.3167C195.745 25.7279 195.514 25.3439 195.309 25.1647C195.105 24.9855 194.9 24.8959 194.695 24.8959C194.362 24.8959 193.965 25.1135 193.505 25.5487C193.044 25.9583 192.519 26.5727 191.93 27.3919C191.367 28.1855 190.727 29.1839 190.01 30.3871C189.677 30.9503 189.421 31.5007 189.242 32.0383C189.063 32.5503 188.973 32.8063 188.973 32.8063Z" fill="white"/>
<path d="M213.599 37.5295C213.266 37.6063 212.933 37.5167 212.6 37.2607C212.293 37.0303 212.076 36.7743 211.948 36.4927C211.794 36.0831 211.692 35.6991 211.64 35.3407C211.615 34.9567 211.589 34.5215 211.564 34.0351L211.525 32.7295L209.951 34.1503C209.08 34.9695 208.261 35.5583 207.493 35.9167C206.751 36.2495 206.072 36.4159 205.458 36.4159C205.176 36.3647 204.831 36.1855 204.421 35.8783C204.037 35.5455 203.679 35.1871 203.346 34.8031C203.039 34.3935 202.821 34.0607 202.693 33.8047C202.54 33.4463 202.488 32.9471 202.54 32.3071C202.616 31.6671 202.77 30.9631 203 30.1951C203.256 29.4271 203.564 28.6719 203.922 27.9295C204.306 27.1871 204.741 26.5471 205.228 26.0095C206.072 24.7295 207.122 23.9359 208.376 23.6287C209.631 23.2959 210.744 23.3983 211.717 23.9359C212.178 24.1663 212.511 24.2559 212.716 24.2047C212.92 24.1535 213.048 23.9871 213.1 23.7055C213.202 23.2959 213.317 22.9119 213.445 22.5535C213.573 22.1951 213.752 21.6575 213.983 20.9407C214.623 18.9951 215.173 17.4719 215.634 16.3711C216.12 15.2703 216.556 14.3103 216.94 13.4911C217.221 12.9023 217.503 12.4927 217.784 12.2623C218.066 12.0319 218.309 11.9295 218.514 11.9551C218.796 11.9551 219.141 12.0575 219.551 12.2623C219.986 12.4671 220.268 12.7487 220.396 13.1071C220.498 13.3375 220.536 13.5807 220.511 13.8367C220.511 14.0927 220.434 14.3615 220.28 14.6431C219.948 15.2575 219.551 16.0767 219.09 17.1007C218.655 18.0991 218.207 19.1999 217.746 20.4031C217.311 21.6063 216.901 22.7967 216.517 23.9743C216.133 25.1519 215.813 26.1887 215.557 27.0847C215.404 27.6479 215.276 28.3647 215.173 29.2351C215.096 30.1055 215.032 31.0015 214.981 31.9231C214.956 32.8191 214.956 33.6255 214.981 34.3423C215.007 35.0335 215.045 35.4815 215.096 35.6863C215.25 36.1983 215.25 36.5823 215.096 36.8383C214.943 37.0943 214.725 37.2607 214.444 37.3375C214.162 37.4399 213.88 37.5039 213.599 37.5295ZM207.263 32.8831C207.621 32.7551 207.941 32.6015 208.223 32.4223C208.504 32.2431 208.837 32.0127 209.221 31.7311C209.989 31.1423 210.54 30.6303 210.872 30.1951C211.231 29.7599 211.512 29.2223 211.717 28.5823C211.845 28.1983 211.845 27.8655 211.717 27.5839C211.615 27.3023 211.423 27.0335 211.141 26.7775C210.86 26.5471 210.501 26.4575 210.066 26.5087C209.631 26.5343 209.132 26.8031 208.568 27.3151C207.954 27.8783 207.429 28.5311 206.994 29.2735C206.559 30.0159 206.2 31.0783 205.919 32.4607C205.868 32.7167 205.957 32.8959 206.188 32.9983C206.418 33.1007 206.776 33.0623 207.263 32.8831Z" fill="white"/>
</g>
<defs>
<clipPath id="clip0_2449_56">
<rect width="216" height="48" fill="white"/>
</clipPath>
</defs>
</svg>
