<svg width="1312" height="320" viewBox="0 0 1312 320" fill="none" xmlns="http://www.w3.org/2000/svg">
<g clip-path="url(#clip0_2361_170)">
<path d="M396.021 70.6695C408.919 57.0586 423.658 42.667 444.312 37.2319C486.087 26.2382 527.339 47.7391 536.451 85.2552C532.435 134.729 494.945 125.778 462.44 150.179C429.935 174.58 421.988 269.591 381.321 233.42C356.134 211.017 352.517 154.132 373.242 106.362C379.568 91.7801 387.432 79.733 396.021 70.6695Z" fill="#FFA0BE"/>
<path d="M284.943 165.979C243.521 134.178 77.3771 71.9372 25.4857 75.1174C-26.4057 78.2975 8.64374 177.792 61.9007 225.494C115.158 273.197 284.943 303.181 317.716 280.011C350.49 256.842 326.365 197.781 284.943 165.979Z" fill="#FFD952"/>
<path d="M1215.47 183.172C1176.01 172.416 1062.85 98.5712 1043.11 64.8756C1023.38 31.18 1106.87 6.16483 1162.3 16.7915C1217.73 27.4182 1310.17 118.683 1308.03 149.911C1305.88 181.139 1254.92 193.928 1215.47 183.172Z" fill="#FFD952"/>
</g>
<defs>
<clipPath id="clip0_2361_170">
<rect width="1312" height="320" fill="white" transform="matrix(-1 0 0 1 1312 0)"/>
</clipPath>
</defs>
</svg>
